<?xml version="1.0" encoding="utf-8"?>
<!-- Generator: Adobe Illustrator 21.0.0, SVG Export Plug-In . SVG Version: 6.00 Build 0)  -->
<svg version="1.1" id="Layer_1" xmlns="http://www.w3.org/2000/svg" xmlns:xlink="http://www.w3.org/1999/xlink" x="0px" y="0px"
	 viewBox="0 -50 500 500" style="enable-background:new 0 0 500 500;" xml:space="preserve">
<style type="text/css">
	.st0{fill:#F5F5F5;}
	.st1{fill:#E6E6E6;}
	.st2{fill:#E0E0E0;}
	.st3{fill:#FAFAFA;}
	.st4{fill:#FFFFFF;}
	.st5{fill:#F0F0F0;}
	.st6{fill:#0A3FFF;}
	.st7{opacity:0.3;fill:#FFFFFF;enable-background:new    ;}
	.st8{fill:#455A64;}
	.st9{opacity:0.4;fill:#FFFFFF;enable-background:new    ;}
	.st10{opacity:0.6;fill:#FFFFFF;enable-background:new    ;}
	.st11{opacity:5.000000e-02;}
	.st12{fill:#EBEBEB;}
	.st13{display:none;}
	.st14{display:inline;}
	.st15{opacity:5.000000e-02;enable-background:new    ;}
	.st16{opacity:0.3;enable-background:new    ;}
	.st17{opacity:0.15;enable-background:new    ;}
	.st18{fill:#263238;}
	.st19{fill:#37474F;}
	.st20{opacity:0.2;enable-background:new    ;}
	.st21{display:none;fill:#455A64;}
	.st22{fill:#FFBDA7;}
	.st23{fill:#F0997A;}
	.st24{fill:#B16668;}
	.st25{fill:#F28F8F;}
	.st26{opacity:0.1;enable-background:new    ;}
	.st27{display:inline;fill:#455A64;}
	.st28{display:inline;fill:#0A3FFF;}
	.st29{opacity:0.4;enable-background:new    ;}
	.st30{opacity:0.25;enable-background:new    ;}
	.st31{fill:#9A4A4D;}
</style>
<g id="freepik--Floor--inject-44">
	<ellipse id="freepik--floor--inject-44" class="st0" cx="251.7" cy="350.3" rx="235.3" ry="124.1"/>
</g>
<g id="freepik--Shadows--inject-44">
	<path id="freepik--Shadow--inject-44" class="st1" d="M400.7,309.6c-16.3,9.4-16.3,24.7,0,34.1s42.7,9.4,59,0s16.3-24.7,0-34.1
		S417,300.2,400.7,309.6z"/>
	<ellipse id="freepik--shadow--inject-44" class="st2" cx="366.1" cy="381.8" rx="64.6" ry="37.3"/>
	<path id="freepik--shadow--inject-44_1_" class="st2" d="M57,411.6l6.6,3.8c2.4,1.2,5.2,1.2,7.5,0l145.5-84c2.1-1.2,2.1-3.1,0-4.4
		l-6.6-3.8c-2.4-1.2-5.2-1.2-7.5,0L57,407.2C54.9,408.4,54.9,410.4,57,411.6z"/>
	<path id="freepik--shadow--inject-44_2_" class="st2" d="M94,419.6l6.6,3.8c2.4,1.2,5.2,1.2,7.5,0L232.3,352c2.1-1.2,2.1-3.1,0-4.4
		l-6.6-3.8c-2.4-1.2-5.2-1.2-7.5,0L94,415.3C91.9,416.5,91.9,418.4,94,419.6z"/>
</g>
<g id="freepik--Pictures--inject-44">
	<g id="freepik--Picture--inject-44">
		<g id="freepik--Frame--inject-44">
			<polygon class="st3" points="454.5,111.3 452.7,112.3 417,91.7 418.7,90.6 			"/>
			<polygon class="st4" points="418.7,90.6 452.7,110.3 452.7,74.7 418.7,55 			"/>
			<path class="st5" d="M413.7,93.6L456,118V72.8l-42.3-24.4V93.6z M417,54l35.8,20.7v37.7L417,91.7V54z"/>
			<polygon class="st2" points="417,91.7 418.7,90.6 418.7,55 417,54 			"/>
			<polygon class="st3" points="413.7,48.3 415.4,47.3 457.8,71.7 456,72.8 			"/>
			<polygon class="st2" points="457.8,71.7 456,72.8 456,118 457.8,117 			"/>
		</g>
		<g id="freepik--Land--inject-44">
			<polygon class="st5" points="420,89.6 451.4,107.7 451.4,98.6 443.5,80.5 438.7,85.1 440.4,92.6 429.6,69.5 420,80.5 			"/>
			<path class="st5" d="M439,71.8c1.4,0.9,2.2,2.4,2.3,4c0,1.5-1,2.1-2.3,1.3c-1.4-0.9-2.2-2.4-2.3-4C436.6,71.6,437.7,71,439,71.8z
				"/>
		</g>
	</g>
	<g id="freepik--picture--inject-44">
		<g id="freepik--frame--inject-44">
			<polygon class="st3" points="454.5,168.2 452.7,169.2 417,148.6 418.7,147.5 			"/>
			<polygon class="st4" points="418.7,147.5 452.7,167.1 452.7,131.5 418.7,111.9 			"/>
			<path class="st5" d="M413.7,150.4l42.3,24.4v-45.3l-42.3-24.4V150.4z M417,110.9l35.8,20.7v37.7L417,148.6V110.9z"/>
			<polygon class="st2" points="417,148.6 418.7,147.5 418.7,111.9 417,110.9 			"/>
			<polygon class="st3" points="413.7,105.2 415.4,104.2 457.8,128.6 456,129.6 			"/>
			<polygon class="st2" points="457.8,128.6 456,129.6 456,174.9 457.8,173.9 			"/>
		</g>
		<g id="freepik--land--inject-44">
			<polygon class="st5" points="420,146.4 451.4,164.6 451.4,155.5 443.5,137.4 438.7,141.9 440.4,149.5 429.6,126.3 420,137.4 			
				"/>
			<path class="st5" d="M439,128.6c1.4,0.9,2.2,2.4,2.3,4c0,1.5-1,2.1-2.3,1.3c-1.4-0.9-2.2-2.4-2.3-4
				C436.6,128.5,437.7,127.9,439,128.6z"/>
		</g>
	</g>
</g>
<g id="freepik--Plants--inject-44">
	<g id="freepik--plants--inject-44">
		<path class="st6" d="M66.6,400.7c2.5-13.7,3.6-29-1-50.4c-3.9-18-13.6-33.5-24.9-35.5c-4.6-0.8-9.2,1.8-10.4,4.6
			c-3.2,7.6,2.7,14.6,5.4,18.1c2,2.6,20.9,21.1,22.5,49.2l0.9,16.8c0.1,0.9,0.9,1.3,1.5,0.9L66.6,400.7z"/>
		<path class="st7" d="M66.6,400.7c2.5-13.7,3.6-29-1-50.4c-3.9-18-13.6-33.5-24.9-35.5c-4.6-0.8-9.2,1.8-10.4,4.6
			c-3.2,7.6,2.7,14.6,5.4,18.1c2,2.6,20.9,21.1,22.5,49.2l0.9,16.8c0.1,0.9,0.9,1.3,1.5,0.9L66.6,400.7z"/>
		<path class="st4" d="M63.5,394.4c-0.2-0.1-0.4-0.4-0.3-0.6c0.7-35.8-9.8-58.2-25-70.9c-0.3-0.2-0.3-0.6-0.2-0.9
			c0.1-0.2,0.3-0.3,0.5-0.3c0.1,0,0.1,0,0.1,0.1c15.4,12.8,26.2,35.7,25.5,72C64.1,394.1,63.9,394.4,63.5,394.4L63.5,394.4z"/>
		<path class="st6" d="M60.6,404.5c-1.7,1.2-2.6-1.3-3.4-4.1c-2.7-9.1-5.7-13.8-10.7-20.2c-6.2-7.8-17-15.1-18.2-21.5
			c-1.1-5.9,3.6-10.4,12.1-7.3c10.1,3.8,23.8,16,23.3,51.2L60.6,404.5z"/>
		<path class="st4" d="M61.3,400c-0.2-0.1-0.4-0.3-0.4-0.5c-4.8-27.1-19.8-40.6-26.8-43.3c-0.3-0.2-0.4-0.5-0.4-0.8
			c0.1-0.3,0.3-0.5,0.6-0.4c7.7,2.9,22.7,16.6,27.6,44.3c0.1,0.3-0.1,0.6-0.4,0.8C61.5,400,61.4,400,61.3,400z"/>
	</g>
</g>
<g id="freepik--Table--inject-44">
	<g id="freepik--table--inject-44_1_">
		<g id="freepik--table--inject-44">
			<path class="st8" d="M400.5,280.6c0-0.4,0.3-0.7,0.6-0.9c0.9-0.5,2.1-0.5,3,0c0.3,0.2,0.6,0.5,0.6,0.9l-7.6,44.9l0,0
				c0,0.3-0.2,0.5-0.4,0.6c-0.7,0.3-1.5,0.3-2.1,0c-0.2-0.1-0.4-0.3-0.4-0.6l0,0L400.5,280.6z"/>
			<path class="st8" d="M459.1,280.6c0-0.4-0.3-0.7-0.6-0.9c-0.9-0.5-2.1-0.5-3,0c-0.4,0.2-0.6,0.5-0.6,0.9l7.6,44.9l0,0
				c0,0.3,0.2,0.5,0.4,0.6c0.7,0.3,1.5,0.3,2.1,0c0.2-0.1,0.4-0.3,0.4-0.6l0,0L459.1,280.6z"/>
			<path class="st8" d="M432.1,284c0-0.4-0.3-0.7-0.6-0.9c-0.9-0.5-2.1-0.5-3,0c-0.4,0.2-0.6,0.5-0.6,0.9l0.6,53.4l0,0
				c0,0.3,0.2,0.5,0.4,0.6c0.7,0.3,1.5,0.3,2.1,0c0.2-0.1,0.4-0.3,0.4-0.6l0,0L432.1,284z"/>
			<path class="st6" d="M468.3,265.8L468.3,265.8c0-5.6-3.7-11.3-11.2-15.6c-14.9-8.6-39.2-8.6-54.1,0c-7.5,4.3-11.2,10-11.2,15.6
				l0,0v3l0,0c0.1,5.6,3.8,11.1,11.2,15.4c14.9,8.6,39.2,8.6,54.1,0c7.4-4.3,11.1-9.8,11.2-15.4l0,0V265.8z"/>
			<path class="st9" d="M468.3,265.8L468.3,265.8c0-5.6-3.7-11.3-11.2-15.6c-14.9-8.6-39.2-8.6-54.1,0c-7.5,4.3-11.2,10-11.2,15.6
				l0,0v3l0,0c0.1,5.6,3.8,11.1,11.2,15.4c14.9,8.6,39.2,8.6,54.1,0c7.4-4.3,11.1-9.8,11.2-15.4l0,0V265.8z"/>
			<path class="st6" d="M403,250.2c-14.9,8.6-14.9,22.6,0,31.2s39.2,8.6,54.1,0s14.9-22.6,0-31.2S417.9,241.6,403,250.2z"/>
			<path class="st10" d="M403,250.2c-14.9,8.6-14.9,22.6,0,31.2s39.2,8.6,54.1,0s14.9-22.6,0-31.2S417.9,241.6,403,250.2z"/>
		</g>
		<g id="freepik--Pot--inject-44">
			<g class="st11">
				<path d="M438.4,258.5c4.8,2.8,4.8,7.2,0,10s-12.5,2.8-17.3,0s-4.8-7.2,0-10S433.6,255.8,438.4,258.5z"/>
			</g>
			<path class="st12" d="M422.2,264.1c-4.1-4.2-6.6-14.8-2.5-18.2h20.6c4,3.4,1.6,13.9-2.5,18.2l-0.1,0.1c0,0.1-0.1,0.1-0.1,0.1
				l-0.4,0.3l-0.1,0.1l-0.3,0.2c-0.2,0.1-0.3,0.2-0.5,0.4c-3.9,2-8.5,2-12.4,0l0,0c-0.2-0.1-0.4-0.2-0.5-0.4l-0.3-0.2l-0.1-0.1
				c-0.1-0.1-0.2-0.2-0.4-0.3L422.2,264.1L422.2,264.1z"/>
			<path class="st3" d="M438.4,244.6c4.7,2.7,4.7,7.1,0,9.8s-12.3,2.7-17,0s-4.7-7.1,0-9.8S433.8,241.9,438.4,244.6z"/>
			<path class="st12" d="M435.1,246.6c2.9,1.6,2.9,4.3,0,6c-3.3,1.6-7.1,1.6-10.4,0c-2.9-1.6-2.9-4.3,0-6
				C428,244.9,431.9,244.9,435.1,246.6z"/>
			<path class="st2" d="M424.8,249.4c3.3-1.6,7.1-1.6,10.4,0c0.7,0.4,1.3,0.9,1.7,1.6c-0.4,0.7-1,1.2-1.7,1.6
				c-3.3,1.6-7.1,1.6-10.4,0c-0.7-0.4-1.3-0.9-1.7-1.6C423.5,250.3,424.1,249.8,424.8,249.4z"/>
			<path class="st6" d="M434.5,251c1.5-1.5,2.7-3.2,3.8-5c1.7-3.1,2-7.2,1.1-7.7s-4.5,3.6-4.5,3.6c0.3-1.7,0.5-3.5,0.4-5.2
				c-0.1-2.7-0.8-5.2-1.6-5.7s-2.5,2.9-3.3,5.4s-1.2,4.5-1.2,4.5c-0.3-1.9-0.8-3.9-1.4-5.7c-0.9-2.6-1.7-3.2-2.4-2.9
				s-1.1,1.5-1.2,4.9c-0.1,1.6,0,3.3,0.1,4.9c0,0-1.3-1.4-2.7-2.8s-2.2-1.7-2.7-1.4s-0.6,2.6,1.9,7c1.2,2.2,2.7,4.3,4.6,6
				C425.4,250.9,428.8,253.1,434.5,251z"/>
		</g>
	</g>
</g>
<g id="freepik--Device--inject-44" class="st13">
	<g id="freepik--Mobile--inject-44" class="st14">
		<path class="st6" d="M184.6,31.8L62.4,102.3c-3.7,2.1-6,6-6.2,10.2v284.1c0,4.2,2.6,9.1,5.8,10.9c3.2,1.8,8.7,1.6,12.3-0.5
			l121.8-70.3c3.9-2.5,6.3-6.7,6.6-11.4V42.2c0-4.2-2.6-9-5.8-10.9S188.2,29.7,184.6,31.8z"/>
		<path class="st15" d="M184.6,31.8L62.4,102.3c-3.7,2.1-6,6-6.2,10.2v284.1c0,4.2,2.6,9.1,5.8,10.9c3.2,1.8,8.7,1.6,12.3-0.5
			l121.8-70.3c3.9-2.5,6.3-6.7,6.6-11.4V42.2c0-4.2-2.6-9-5.8-10.9S188.2,29.7,184.6,31.8z"/>
		<path class="st6" d="M72.7,407.8c-3.5,1.4-8,1.3-10.7-0.3c-3.2-1.8-5.8-6.7-5.8-10.9V112.5c0.1-2,0.6-3.9,1.7-5.6l10.6,6
			c-1.8,2.1-2.9,4.8-3,7.6V402C65.4,407,68.6,409.4,72.7,407.8z"/>
		<path class="st16" d="M72.7,407.8c-3.5,1.4-8,1.3-10.7-0.3c-3.2-1.8-5.8-6.7-5.8-10.9V112.5c0.1-2,0.6-3.9,1.7-5.6l10.6,6
			c-1.8,2.1-2.9,4.8-3,7.6V402C65.4,407,68.6,409.4,72.7,407.8z"/>
		<path class="st6" d="M71.2,110.5c-3.4,2.2-5.6,5.9-5.8,10V402c0,5.6,4,8,8.9,5.1l121.8-70.3c3.9-2.5,6.3-6.7,6.6-11.4V42.2
			c0-4.2-2.9-5.9-6.6-3.8L71.2,110.5z"/>
		<path class="st17" d="M71.2,110.5c-3.4,2.2-5.6,5.9-5.8,10V402c0,5.6,4,8,8.9,5.1l121.8-70.3c3.9-2.5,6.3-6.7,6.6-11.4V42.2
			c0-4.2-2.9-5.9-6.6-3.8L71.2,110.5z"/>
		<path class="st18" d="M75.7,127.5c-3.7,2.4-6,6.4-6.2,10.8v252.6c0,4,2.8,5.6,6.2,3.6l115-66.5c3.7-2.4,6-6.4,6.2-10.8V64.6
			c0-4-2.8-5.6-6.2-3.6L75.7,127.5z"/>
		<path class="st19" d="M187.4,310.3V62.9L75.7,127.5c-3.7,2.4-6,6.4-6.2,10.8v247.4l111.8-64.5
			C184.9,318.7,187.2,314.7,187.4,310.3z"/>
		<path class="st18" d="M123.7,88.2l19-10.9c1.1-0.7,2.1-0.2,2.1,1c-0.1,1.4-0.9,2.7-2.1,3.4l-19,11c-1.1,0.7-2,0.2-2-1
			C121.8,90.2,122.5,88.9,123.7,88.2z"/>
		<path class="st18" d="M156.2,69.4c1.1-0.6,1.9-0.1,1.9,1.1c-0.1,1.3-0.8,2.6-1.9,3.3c-1.1,0.6-1.9,0.1-1.9-1.1
			C154.4,71.4,155.1,70.1,156.2,69.4z"/>
		<path class="st18" d="M163.9,64.9c1.1-0.6,1.9-0.1,1.9,1.1c-0.1,1.4-0.8,2.6-1.9,3.3c-1.1,0.6-1.9,0.1-1.9-1.1
			C162.1,66.9,162.8,65.7,163.9,64.9z"/>
		<path class="st18" d="M102.4,100.4c1.1-0.6,1.9-0.1,1.9,1.1c-0.1,1.4-0.8,2.6-1.9,3.3c-1.1,0.6-1.9,0.1-1.9-1.1
			C100.6,102.4,101.3,101.2,102.4,100.4z"/>
		<path class="st18" d="M110.1,96c1.1-0.6,1.9-0.1,1.9,1.1c-0.1,1.3-0.8,2.6-1.9,3.3c-1.1,0.6-1.9,0.1-1.9-1.1
			C108.3,98,109,96.7,110.1,96z"/>
	</g>
</g>
<g id="freepik--Icons--inject-44">
	<g id="freepik--Mail--inject-44">
		<g id="freepik--Box--inject-44">
			<path class="st6" d="M355.9,190.3c-0.1-1.5-0.9-2.9-2.2-3.7l-1.8-1c-1.4-0.7-2.9-0.7-4.3,0l-26.9,15.5c-1.3,0.8-2.1,2.2-2.1,3.7
				v29.6c0.1,1.5,0.9,2.9,2.1,3.7l1.8,1c1.4,0.7,2.9,0.7,4.3,0l26.9-15.5c1.3-0.8,2.1-2.2,2.2-3.7V190.3z"/>
			<path class="st20" d="M318.7,234.3c0.1,1.5,0.9,2.9,2.1,3.7l1.8,1c1.2,0.6,2.7,0.7,3.9,0.2c-1,0.4-1.8-0.2-1.8-1.4v-29.5
				c0-0.7,0.2-1.5,0.6-2.1l-6-3.5c-0.4,0.6-0.6,1.4-0.6,2.1V234.3z"/>
			<path class="st7" d="M355.8,189.6c-0.3-0.9-1.1-1.2-2.1-0.6l-26.9,15.5c-0.6,0.4-1.2,0.9-1.5,1.6l-6.1-3.5
				c0.4-0.7,0.9-1.2,1.5-1.6l26.9-15.5c1.4-0.7,2.9-0.7,4.3,0l1.8,1C354.8,187.2,355.6,188.4,355.8,189.6z"/>
		</g>
		<path id="freepik--mail--inject-44" class="st3" d="M349.2,200.3c-0.2-0.1-0.4-0.1-0.6,0L331,210.4c-0.2,0.1-0.3,0.3-0.3,0.5v16.7
			c0,0.2,0.1,0.4,0.3,0.5c0.1,0,0.2,0.1,0.3,0.1c0.1,0,0.2,0,0.3-0.1l17.6-10.1c0.2-0.1,0.3-0.3,0.3-0.5v-16.7
			C349.5,200.6,349.4,200.4,349.2,200.3z M340,215.2l-7.5-4.2l14.9-8.6L340,215.2z M337.4,215l-5.4,10.3v-13.4L337.4,215z
			 M338.4,215.6l1.5,0.9c0.1,0,0.2,0.1,0.3,0.1c0.2,0,0.4-0.1,0.5-0.3l1.7-2.9l5.5,4.1l-15.1,8.7L338.4,215.6z M343,212.3l5.4-9.4
			v13.4L343,212.3z"/>
	</g>
	<g id="freepik--Chat--inject-44">
		<g id="freepik--box--inject-44">
			<path class="st6" d="M310.8,216.2c-0.1-1.5-0.9-2.9-2.1-3.7l-1.8-1c-1.4-0.7-2.9-0.7-4.3,0L275.8,227c-1.3,0.8-2.1,2.2-2.1,3.7
				v29.6c0.1,1.5,0.9,2.9,2.1,3.7l1.8,1c1.4,0.7,2.9,0.7,4.3,0l26.9-15.5c1.3-0.8,2.1-2.2,2.1-3.7L310.8,216.2z"/>
			<path class="st20" d="M273.6,260.3c0.1,1.5,0.9,2.9,2.1,3.7l1.8,1c1.2,0.6,2.7,0.7,3.9,0.2c-1,0.4-1.8-0.2-1.8-1.4v-29.6
				c0-0.7,0.2-1.5,0.6-2.1l-6-3.5c-0.4,0.6-0.6,1.4-0.6,2.1V260.3z"/>
			<path class="st7" d="M310.8,215.6c-0.3-0.9-1.1-1.2-2.1-0.6l-26.9,15.5c-0.6,0.4-1.2,0.9-1.5,1.6l-6-3.5c0.4-0.7,0.9-1.2,1.5-1.6
				l26.9-15.5c1.4-0.7,3-0.7,4.3,0l1.8,1C309.8,213.2,310.5,214.4,310.8,215.6z"/>
		</g>
		<path id="freepik--chat--inject-44" class="st3" d="M304.2,232.5l-8.5,4.9c-1.2,0.9-1.9,2.4-1.9,3.9v6.1c0,1.6,0.8,2.4,1.9,1.8
			l4.5-2.6l3.1,3.3c0.1,0.1,0.2,0.1,0.4,0c0.1-0.1,0.2-0.1,0.2-0.2c0.2-0.3,0.3-0.6,0.3-0.9l-0.6-4.1l0.6-0.4
			c1.2-0.9,1.9-2.4,1.9-3.9v-6.1C306.1,232.7,305.2,231.9,304.2,232.5z M305.1,241.3c0,0.7-0.3,1.4-0.9,1.9l-1.2,0.7
			c-0.2,0.1-0.3,0.3-0.4,0.5s-0.1,0.4-0.1,0.7l0.4,2.2l-2.1-1.9c-0.1-0.1-0.3-0.1-0.4,0l-4.7,2.7c-0.5,0.3-0.9-0.1-0.9-0.9v-6.5
			c0-0.7,0.3-1.4,0.9-1.9l8.5-4.9c0.5-0.3,0.9,0.1,0.9,0.9L305.1,241.3z M292.8,243.2l-0.2,0.1c-0.1,0.1-0.2,0.2-0.3,0.3l-4.1,7
			l0.2-4c0.1-0.2,0-0.4-0.1-0.6c-0.1-0.1-0.2-0.2-0.4-0.1l0,0l-1.2,0.7c-0.6,0.4-1.1-0.1-1.1-1.1v-9.3c0-0.9,0.4-1.8,1.1-2.3
			l13.6-7.9c0.6-0.4,1.1,0.1,1.1,1v5.1c0,0.4,0.2,0.6,0.5,0.5c0.3-0.2,0.5-0.6,0.5-1v-5c0-1.7-0.9-2.6-2.1-2l-13.6,7.9
			c-1.3,1-2.1,2.7-2.1,4.4v9.3c0,1.8,0.9,2.6,2.1,2l0.5-0.3l-0.1,4.6c-0.1,0.3,0,0.6,0.2,0.7c0.1,0,0.2,0,0.3,0
			c0.1-0.1,0.2-0.2,0.3-0.3l4.8-8.1l0,0c0.3-0.2,0.5-0.6,0.5-1C293.3,243.2,293.1,243,292.8,243.2L292.8,243.2z"/>
	</g>
	<g id="freepik--Phone--inject-44">
		<g id="freepik--box--inject-44_1_">
			<path class="st6" d="M265.7,242.3c-0.1-1.5-0.9-2.9-2.2-3.7l-1.8-1c-1.4-0.7-2.9-0.7-4.3,0l-26.9,15.5c-1.3,0.8-2.1,2.2-2.1,3.7
				v29.6c0.1,1.5,0.9,2.9,2.1,3.7l1.8,1c1.4,0.7,2.9,0.7,4.3,0l26.9-15.5c1.3-0.8,2.1-2.2,2.2-3.7L265.7,242.3z"/>
			<path class="st20" d="M228.5,286.4c0.1,1.5,0.9,2.9,2.1,3.7l1.8,1c1.2,0.6,2.7,0.7,3.9,0.2c-1,0.4-1.8-0.2-1.8-1.4v-29.5
				c0-0.7,0.2-1.5,0.6-2.1l-6.1-3.5c-0.4,0.6-0.6,1.4-0.6,2.1L228.5,286.4z"/>
			<path class="st7" d="M265.6,241.7c-0.3-0.9-1.1-1.2-2.1-0.6l-26.9,15.5c-0.6,0.4-1.2,0.9-1.5,1.6l-6.1-3.5
				c0.4-0.7,0.9-1.2,1.5-1.6l26.9-15.5c1.4-0.7,2.9-0.7,4.3,0l1.8,1C264.6,239.3,265.4,240.4,265.6,241.7z"/>
		</g>
		<g id="freepik--phone--inject-44">
			<path class="st3" d="M254.1,276.9H254c-6-0.5-10.2-4.6-12.5-12c-0.8-2.9,0-6,2.1-8.1c0.4-0.4,0.9-0.7,1.4-0.7l0,0
				c1.3,0,3.5,3.7,3.6,5.1c0,1-0.4,2-0.9,2.9c-0.6,0.9-0.8,2-0.4,3.1c0.7,2.1,1.9,3.1,3.6,3.4c0.4,0,0.8-0.4,1.1-1.3
				c0.5-1.5,1.2-2.4,2-2.7c0.6-0.2,1.2-0.2,1.7,0.1l0.3,0.1c0.5,0.2,0.9,0.5,1.4,0.8l0,0l0.2,0.1c0.8,0.5,1.6,1.1,1.2,3.2
				s-2,5.1-3.5,6c-0.1,0-0.1,0.1-0.2,0.1H255C254.6,276.9,254.3,276.9,254.1,276.9z M245,257.1c-0.1,0-0.3,0.1-0.6,0.4
				c-1.8,1.9-2.5,4.5-1.9,7c2.2,7.1,6,10.8,11.5,11.2c0.2,0,0.3,0,0.5-0.1h0.1c1.1-0.7,2.4-3.2,2.9-5.2c0.3-1.4-0.1-1.6-0.6-2
				l-0.3-0.2l0,0c-0.4-0.3-0.8-0.5-1.3-0.7l-0.3-0.1c-0.2-0.2-0.5-0.2-0.8-0.1s-0.8,0.6-1.3,2c-0.6,1.8-1.6,2.1-2.3,2
				c-2.1-0.3-3.7-1.6-4.5-4.1c-0.5-1.3-0.3-2.8,0.5-4c0.5-0.6,0.8-1.4,0.8-2.2C247.4,260,245.5,257.3,245,257.1z"/>
		</g>
	</g>
</g>
<g id="freepik--Window--inject-44">
	<g id="freepik--window--inject-44">
		<path class="st2" d="M346.4,23.6L230.7,90.3c-1.5,1-2.5,2.7-2.6,4.5v133.8c0.1,1.8,1.1,3.5,2.6,4.5l1.6,0.9c1.6,0.8,3.6,0.8,5.2,0
			l115.7-66.8c1.5-1,2.5-2.7,2.6-4.5V29c-0.1-1.8-1.1-3.5-2.6-4.5l-1.6-0.9C350,22.7,348.1,22.8,346.4,23.6z"/>
		<path class="st3" d="M355.9,162.9c0,2.3-1.6,3.8-3.6,4.9l-113.7,65.7c-2,1.1-3.6,0.2-3.6-2.1V99.9l0,0c0-2.6,1.4-4.9,3.6-6.2
			L352.3,28c1.2-0.7,2.6-0.3,3.3,0.9c0.2,0.4,0.3,0.8,0.3,1.2l0,0L355.9,162.9z"/>
		<path class="st2" d="M353.5,28.6L353.5,28.6c0.8,0,1.4,0.6,1.4,1.4v132.9c0,1.6-1,2.8-3.1,4L238,232.6c-0.3,0.2-0.7,0.3-1.1,0.4
			c-0.9,0-1-1-1-1.6V99.9c0-2.2,1.2-4.2,3.1-5.3l113.8-65.7C353,28.7,353.2,28.6,353.5,28.6 M353.5,27.6c-0.4,0-0.8,0.1-1.2,0.3
			L238.5,93.7c-2.2,1.3-3.6,3.6-3.6,6.2v131.5c0,1.6,0.8,2.6,2,2.6c0.6,0,1.1-0.2,1.6-0.5l113.7-65.7c2-1.1,3.6-2.6,3.6-4.9V30
			C355.9,28.7,354.8,27.6,353.5,27.6L353.5,27.6z"/>
		<path class="st5" d="M355.9,29v1c0-1.3-1.2-2.4-2.5-2.3c-0.4,0-0.8,0.1-1.1,0.3L238.5,93.7c-1.1,0.6-2,1.5-2.6,2.6v0.1l-7-4.1
			c0.4-0.8,1.1-1.5,1.9-2l115.7-66.7c1.6-0.8,3.6-0.8,5.2,0l1.6,0.9C354.8,25.5,355.8,27.2,355.9,29z"/>
		<path class="st8" d="M249.4,124c-0.1,0-0.1,0-0.2,0l-0.1-0.1l-1.7-3v3.9c0,0.1,0,0.1-0.1,0.2c0,0.1-0.1,0.1-0.1,0.1l-0.5,0.3
			c-0.1,0-0.1,0-0.1,0s-0.1-0.1-0.1-0.2v-6.1c0-0.1,0-0.1,0.1-0.2c0-0.1,0.1-0.1,0.1-0.1l0.4-0.3c0.1,0,0.1,0,0.2,0l0.1,0.1l1.7,2.9
			v-3.9c0-0.1,0-0.1,0.1-0.2c0-0.1,0.1-0.1,0.1-0.1l0.5-0.3h0.1c0,0,0.1,0.1,0.1,0.2v6.1c0,0.1,0,0.1-0.1,0.2c0,0.1-0.1,0.1-0.1,0.1
			L249.4,124z"/>
		<path class="st8" d="M250.9,119.4c0-0.2,0.1-0.3,0.1-0.5c0.1-0.2,0.1-0.4,0.3-0.6c0.1-0.2,0.2-0.4,0.4-0.6s0.3-0.3,0.6-0.4
			c0.2-0.1,0.4-0.2,0.6-0.2c0.2,0,0.3,0,0.4,0.1c0.1,0.1,0.2,0.3,0.3,0.5c0.1,0.3,0.1,0.5,0.1,0.8v2.8c0,0.1,0,0.1-0.1,0.2
			c0,0.1-0.1,0.1-0.1,0.1l-0.5,0.3h-0.1c0,0-0.1-0.1-0.1-0.2v-0.3c-0.1,0.2-0.2,0.5-0.4,0.7s-0.4,0.4-0.6,0.6
			c-0.1,0.1-0.3,0.1-0.5,0.2c-0.1,0-0.3,0-0.4-0.1c-0.1-0.1-0.2-0.2-0.2-0.3c-0.1-0.2-0.1-0.4-0.1-0.6c0-0.4,0.1-0.8,0.3-1.2
			c0.2-0.4,0.5-0.7,0.8-1l1-0.8c0-0.3-0.1-0.4-0.2-0.5c-0.1,0-0.3,0-0.4,0.1c-0.1,0.1-0.2,0.1-0.2,0.2c-0.1,0.1-0.1,0.2-0.2,0.3
			c0,0.1-0.1,0.1-0.1,0.2l-0.1,0.1l-0.6,0.3h-0.1C250.8,119.6,250.9,119.5,250.9,119.4z M251.9,121.5c0.1-0.1,0.3-0.2,0.4-0.3
			c0.1-0.1,0.2-0.3,0.3-0.4s0.1-0.3,0.2-0.4c0-0.1,0.1-0.3,0.1-0.4v-0.1l-0.8,0.7c-0.1,0.1-0.3,0.3-0.4,0.4
			c-0.1,0.1-0.1,0.3-0.1,0.4s0,0.2,0.1,0.2C251.7,121.6,251.8,121.5,251.9,121.5L251.9,121.5z"/>
		<path class="st8" d="M255.2,116.2c0.1-0.2,0.2-0.4,0.4-0.6c0.1-0.2,0.3-0.3,0.4-0.4c0.2-0.1,0.4-0.2,0.6-0.2
			c0.2,0.1,0.3,0.2,0.4,0.4c0.1-0.2,0.1-0.3,0.2-0.4s0.2-0.3,0.3-0.4c0.1-0.1,0.2-0.2,0.3-0.3c0.1-0.1,0.2-0.1,0.3-0.2
			c0.2-0.1,0.4-0.2,0.6-0.2s0.3,0.1,0.4,0.3c0.1,0.2,0.2,0.4,0.2,0.6c0,0.3,0.1,0.5,0.1,0.8v2.5c0,0.1,0,0.1,0,0.2s-0.1,0.1-0.1,0.1
			l-0.5,0.3h-0.1c0,0-0.1-0.1,0-0.2V116c0-0.3,0-0.6-0.2-0.8c-0.1-0.1-0.3-0.1-0.5,0s-0.3,0.3-0.4,0.5c-0.1,0.3-0.2,0.7-0.2,1v2.5
			c0,0.1,0,0.1,0,0.2s-0.1,0.1-0.1,0.1l-0.5,0.3h-0.1c0,0-0.1-0.1,0-0.2v-2.5c0-0.3,0-0.6-0.2-0.8c-0.1-0.1-0.3-0.1-0.4,0
			c-0.2,0.1-0.3,0.3-0.4,0.5c-0.1,0.3-0.2,0.7-0.2,1v2.5c0,0.1-0.1,0.3-0.2,0.3l-0.5,0.3h-0.1c0,0,0-0.1,0-0.2v-4.4
			c0-0.1,0-0.1,0-0.2s0.1-0.1,0.1-0.1l0.5-0.3h0.1c0,0,0,0.1,0,0.2L255.2,116.2z"/>
		<path class="st8" d="M259.9,115.4c0-0.4,0-0.7,0.1-1.1c0.1-0.3,0.2-0.7,0.3-1c0.1-0.3,0.3-0.6,0.5-0.8c0.2-0.2,0.4-0.4,0.6-0.6
			c0.2-0.1,0.4-0.2,0.6-0.2s0.4,0.1,0.5,0.3c0.1,0.2,0.3,0.4,0.3,0.6c0.1,0.3,0.1,0.6,0.1,0.9v0.5c0,0.1,0,0.1,0,0.2
			s-0.1,0.1-0.1,0.2l-2.1,1.2c0,0.1,0,0.2,0.1,0.3c0,0.1,0.1,0.1,0.2,0.2c0.1,0,0.2,0,0.2,0c0.1,0,0.2-0.1,0.3-0.1
			c0.1-0.1,0.2-0.1,0.3-0.2c0.1-0.1,0.1-0.2,0.2-0.3l0.1-0.2l0.1-0.1l0.5-0.3c0.1,0,0.1,0,0.1,0s0,0.1,0,0.2s0,0.3-0.1,0.4
			c-0.1,0.2-0.2,0.4-0.3,0.6c-0.1,0.2-0.3,0.4-0.4,0.6c-0.2,0.2-0.4,0.4-0.6,0.5s-0.4,0.2-0.6,0.2s-0.4-0.1-0.5-0.3
			c-0.1-0.2-0.2-0.4-0.3-0.6C259.9,116.1,259.9,115.8,259.9,115.4z M261.4,113.2c-0.1,0.1-0.2,0.2-0.3,0.3c-0.1,0.1-0.2,0.2-0.2,0.3
			c-0.1,0.1-0.1,0.2-0.1,0.4c0,0.1,0,0.2-0.1,0.3l1.4-0.8c0-0.1,0-0.2,0-0.3c0-0.1-0.1-0.2-0.1-0.2c-0.1-0.1-0.1-0.1-0.2-0.1
			C261.6,113,261.5,113.1,261.4,113.2L261.4,113.2z"/>
		<path class="st6" d="M268.9,91c-0.2,0.1-0.4,0.3-0.6,0.5c-0.1,0.2-0.3,0.4-0.4,0.6s-0.2,0.4-0.2,0.7c0,0.2-0.1,0.5-0.1,0.7
			s0,0.3,0,0.6v0.7c0,0.3,0,0.5,0,0.7s0,0.4,0,0.5c0,0.2,0,0.4,0.1,0.6c0,0.2,0.1,0.3,0.2,0.4s0.2,0.2,0.4,0.2
			c0.2,0,0.4-0.1,0.5-0.2c0.2-0.1,0.3-0.2,0.5-0.4c0.2-0.2,0.3-0.3,0.4-0.5s0.2-0.4,0.3-0.7c0.1-0.3,0.1-0.6,0.1-0.8l-0.8,0.5
			c-0.1,0-0.1,0-0.2,0c-0.1-0.1-0.1-0.2-0.1-0.3v-1.6c0-0.1,0-0.2,0.1-0.3c0-0.1,0.1-0.2,0.2-0.2l2.4-1.4c0.1,0,0.1,0,0.2,0
			c0.1,0.1,0.1,0.2,0.1,0.3v1.9c0,0.6-0.1,1.3-0.2,1.9c-0.2,0.6-0.4,1.2-0.6,1.7c-0.3,0.5-0.6,1-1,1.4c-0.3,0.4-0.8,0.7-1.2,1
			c-0.4,0.2-0.8,0.4-1.3,0.4c-0.3,0-0.7-0.1-1-0.3c-0.3-0.3-0.5-0.6-0.6-1c-0.1-0.5-0.2-1-0.3-1.4c0-0.4,0-0.8,0-1.3s0-0.9,0-1.4
			c0-0.6,0.1-1.2,0.2-1.7c0.1-0.6,0.4-1.1,0.6-1.7c0.3-0.5,0.6-1,1-1.4s0.8-0.8,1.3-1.1c0.4-0.2,0.8-0.4,1.2-0.4
			c0.3,0,0.7,0.1,0.9,0.2c0.3,0.2,0.5,0.4,0.6,0.7c0.1,0.3,0.2,0.7,0.2,1c0,0.1,0,0.2-0.1,0.3c0,0.1-0.1,0.1-0.2,0.2l-1.3,0.8
			c-0.1,0.1-0.2,0.1-0.2,0l-0.2-0.2c-0.1-0.1-0.2-0.2-0.4-0.3C269.5,90.8,269.3,90.8,268.9,91z"/>
		<path class="st6" d="M274.5,93.1c0,0.2,0,0.4,0.1,0.5c0,0.1,0.1,0.2,0.2,0.2s0.2,0,0.3,0c0.1,0,0.2-0.1,0.3-0.1
			c0.2-0.1,0.3-0.2,0.5-0.4c0.1-0.1,0.2-0.3,0.3-0.4l0.1-0.3c0-0.1,0.1-0.1,0.2-0.1l1.3-0.7c0.1-0.1,0.2,0,0.2,0.2s-0.1,0.4-0.1,0.6
			c-0.1,0.3-0.3,0.7-0.5,1c-0.2,0.4-0.5,0.8-0.8,1.1c-0.3,0.4-0.7,0.7-1.2,1c-0.3,0.2-0.7,0.3-1.1,0.4c-0.3,0-0.6-0.1-0.8-0.3
			c-0.3-0.3-0.4-0.6-0.5-1c-0.1-0.5-0.2-1.1-0.2-1.6c0-0.6,0.1-1.2,0.2-1.7c0.1-0.6,0.3-1.1,0.5-1.6s0.5-0.9,0.8-1.3s0.7-0.7,1.1-1
			c0.4-0.2,0.8-0.4,1.2-0.3c0.3,0.1,0.6,0.2,0.8,0.5c0.2,0.3,0.4,0.7,0.5,1.1c0.1,0.5,0.1,0.9,0.1,1.4v0.4c0,0.1,0,0.3-0.1,0.4
			c0,0.1-0.1,0.2-0.2,0.2L274.5,93.1z M275.4,89.7c-0.3,0.2-0.5,0.4-0.6,0.8c-0.1,0.3-0.2,0.7-0.3,1l1.8-1c0-0.3-0.1-0.5-0.3-0.7
			C275.9,89.5,275.7,89.5,275.4,89.7z"/>
		<path class="st6" d="M281.3,89.2c0,0.2,0,0.3,0.1,0.5c0.1,0.1,0.2,0.1,0.3,0l0.8-0.4c0.1,0,0.1,0,0.2,0c0.1,0.1,0.1,0.2,0.1,0.2
			V91c0,0.1,0,0.2-0.1,0.3c0,0.1-0.1,0.2-0.2,0.2l-0.9,0.5c-0.3,0.2-0.5,0.3-0.8,0.3c-0.2,0-0.5-0.1-0.6-0.2
			c-0.2-0.2-0.3-0.4-0.4-0.7c-0.1-0.4-0.2-0.8-0.1-1.2v-2.6L279,88c-0.1,0-0.1,0-0.2,0c-0.1-0.1-0.1-0.2-0.1-0.2v-1.6
			c0-0.1,0-0.2,0.1-0.3c0-0.1,0.1-0.2,0.2-0.2l0.7-0.4v-2.5c0-0.1,0-0.2,0.1-0.3c0-0.1,0.1-0.2,0.2-0.2l1.2-0.7c0.1,0,0.1,0,0.2,0
			c0.1,0.1,0.1,0.2,0.1,0.2v2.5l1.1-0.7c0.1,0,0.1,0,0.2,0c0.1,0.1,0.1,0.2,0.1,0.2v1.5c0,0.1,0,0.2-0.1,0.3c0,0.1-0.1,0.2-0.2,0.2
			l-1.1,0.6L281.3,89.2z"/>
		<path class="st6" d="M287.5,79.6c0,0.1,0,0.2-0.1,0.3c0,0.1-0.1,0.2-0.2,0.2l-1.2,0.7c-0.1,0-0.1,0-0.2,0
			c-0.1-0.1-0.1-0.2-0.1-0.2v-1.5c0-0.1,0-0.2,0.1-0.3c0-0.1,0.1-0.2,0.2-0.2l1.2-0.7c0.1,0,0.1,0,0.2,0c0.1,0.1,0.1,0.2,0.1,0.2
			V79.6z M287.5,88.3c0,0.1,0,0.2-0.1,0.3c0,0.1-0.1,0.2-0.2,0.2l-1.2,0.7c-0.1,0-0.1,0-0.2,0c-0.1-0.1-0.1-0.2-0.1-0.3v-7
			c0-0.1,0-0.2,0.1-0.3c0-0.1,0.1-0.2,0.2-0.2l1.2-0.7c0.1,0,0.1,0,0.2,0c0.1,0.1,0.1,0.2,0.1,0.2V88.3z"/>
		<path class="st6" d="M293.8,84.6c0,0.1,0,0.2-0.1,0.3c0,0.1-0.1,0.2-0.2,0.2l-1.2,0.7c-0.1,0-0.1,0-0.2,0
			c-0.1-0.1-0.1-0.2-0.1-0.2v-3.8c0-0.3,0-0.6-0.2-0.9c-0.1-0.2-0.4-0.2-0.6,0c-0.3,0.2-0.5,0.4-0.6,0.8s-0.2,0.8-0.2,1.2v3.8
			c0,0.1,0,0.2-0.1,0.3c0,0.1-0.1,0.2-0.2,0.2l-1.2,0.7c-0.1,0-0.1,0-0.2,0c-0.1-0.1-0.1-0.2-0.1-0.3v-7.1c0-0.1,0-0.2,0.1-0.3
			c0-0.1,0.1-0.2,0.2-0.2l1.2-0.7c0.1,0,0.1,0,0.2,0c0.1,0.1,0.1,0.2,0.1,0.2v0.3c0.1-0.1,0.1-0.3,0.2-0.4c0.1-0.2,0.2-0.3,0.3-0.5
			c0.1-0.2,0.2-0.3,0.4-0.4c0.2-0.1,0.3-0.3,0.5-0.4c0.3-0.2,0.6-0.3,0.9-0.3c0.2,0,0.5,0.1,0.7,0.2c0.2,0.2,0.4,0.5,0.4,0.8
			c0.1,0.5,0.2,1,0.2,1.4L293.8,84.6z"/>
		<path class="st6" d="M299.2,78.8c0,0.2,0,0.3,0.1,0.5c0.1,0.1,0.2,0.1,0.3,0l0.8-0.5c0.1,0,0.1,0,0.2,0c0.1,0.1,0.1,0.2,0.1,0.2
			v1.5c0,0.1,0,0.2-0.1,0.3c0,0.1-0.1,0.2-0.2,0.2l-0.9,0.5c-0.3,0.2-0.5,0.3-0.8,0.3c-0.2,0-0.5-0.1-0.6-0.2
			c-0.2-0.2-0.4-0.4-0.4-0.7c-0.1-0.4-0.2-0.8-0.1-1.2v-2.5l-0.7,0.4c-0.1,0-0.1,0-0.2,0c-0.1-0.1-0.1-0.2-0.1-0.2v-1.5
			c0-0.1,0-0.2,0.1-0.3c0-0.1,0.1-0.2,0.2-0.2l0.7-0.4v-2.5c0-0.1,0-0.2,0.1-0.3c0-0.1,0.1-0.2,0.2-0.2l1.2-0.7c0.1,0,0.1,0,0.2,0
			c0.1,0.1,0.1,0.2,0.1,0.3V74l1.1-0.6c0.1,0,0.1,0,0.2,0c0.1,0.1,0.1,0.2,0.1,0.2v1.5c0,0.1,0,0.2-0.1,0.3c0,0.1-0.1,0.2-0.2,0.2
			l-1.1,0.6L299.2,78.8z"/>
		<path class="st6" d="M306.6,73.1c0,0.1,0,0.3,0,0.6s0,0.4,0,0.6c0,0.5-0.1,1-0.2,1.5s-0.3,1-0.5,1.4s-0.5,0.9-0.8,1.2
			c-0.3,0.4-0.7,0.7-1.1,0.9c-0.3,0.2-0.7,0.3-1.1,0.3c-0.3,0-0.6-0.1-0.8-0.3c-0.3-0.2-0.4-0.5-0.5-0.8c-0.1-0.4-0.2-0.8-0.2-1.2
			c0-0.1,0-0.3,0-0.6s0-0.4,0-0.6c0-0.5,0.1-1,0.2-1.5s0.3-1,0.5-1.4s0.5-0.9,0.8-1.2c0.3-0.4,0.7-0.7,1.1-0.9
			c0.3-0.2,0.7-0.3,1.1-0.3c0.3,0,0.6,0.1,0.8,0.3c0.3,0.2,0.4,0.5,0.5,0.8C306.5,72.3,306.6,72.7,306.6,73.1z M303,76.3
			c0,0.3,0.1,0.5,0.3,0.7c0.2,0.1,0.4,0.1,0.6,0c0.3-0.2,0.5-0.4,0.6-0.7c0.2-0.3,0.3-0.7,0.3-1.1c0-0.2,0-0.4,0-0.5
			c0-0.2,0-0.3,0-0.5c0-0.3-0.1-0.5-0.3-0.7c-0.2-0.1-0.4-0.1-0.6,0c-0.3,0.2-0.5,0.4-0.6,0.7c-0.2,0.3-0.3,0.7-0.3,1.1
			c0,0.2,0,0.3,0,0.5S303,76.1,303,76.3z"/>
		<path class="st6" d="M307.5,69.7c0-0.1,0-0.2,0.1-0.3c0-0.1,0.1-0.2,0.2-0.2l1.3-0.7c0.1,0,0.1,0,0.2,0c0.1,0.1,0.1,0.2,0.1,0.3
			v3.8c0,0.3,0,0.7,0.2,0.9c0.1,0.2,0.3,0.2,0.6,0c0.3-0.2,0.5-0.4,0.6-0.8s0.2-0.8,0.2-1.2v-3.8c0-0.1,0-0.2,0.1-0.3
			c0-0.1,0.1-0.2,0.2-0.2l1.2-0.7c0.1,0,0.1,0,0.2,0c0.1,0.1,0.1,0.2,0.1,0.3v7.1c0,0.1,0,0.2-0.1,0.3c0,0.1-0.1,0.2-0.2,0.2
			l-1.1,0.7c-0.1,0-0.1,0-0.2,0c-0.1-0.1-0.1-0.2-0.1-0.2v-0.3c-0.1,0.2-0.1,0.3-0.2,0.4c-0.1,0.2-0.2,0.3-0.3,0.4
			c-0.1,0.2-0.2,0.3-0.4,0.4c-0.2,0.1-0.3,0.3-0.5,0.4c-0.6,0.4-1.1,0.4-1.5,0c-0.5-0.7-0.7-1.5-0.6-2.3L307.5,69.7z"/>
		<path class="st6" d="M315.4,68.1c0,0.2,0,0.3,0,0.6s0,0.4,0,0.5c0,0.3,0.1,0.5,0.3,0.7c0.1,0.1,0.4,0.1,0.6,0s0.4-0.3,0.5-0.4
			c0.1-0.2,0.2-0.4,0.3-0.6c0-0.1,0.1-0.2,0.1-0.3c0-0.1,0.1-0.1,0.2-0.2l1.3-0.8c0.1,0,0.1,0,0.2,0c0.1,0.1,0.1,0.2,0.1,0.3
			c0,0.3-0.1,0.5-0.1,0.8c-0.1,0.4-0.2,0.8-0.4,1.2c-0.2,0.5-0.5,0.9-0.8,1.3c-0.4,0.4-0.8,0.8-1.3,1.1c-0.3,0.2-0.6,0.3-1,0.3
			c-0.3,0-0.6-0.1-0.8-0.2c-0.3-0.2-0.5-0.5-0.6-0.8c-0.2-0.4-0.2-0.9-0.2-1.3c0-0.1,0-0.3,0-0.6s0-0.4,0-0.6c0-0.5,0.1-1.1,0.2-1.6
			s0.3-1,0.6-1.4c0.2-0.4,0.5-0.8,0.8-1.2c0.3-0.3,0.6-0.6,1-0.8c0.4-0.3,0.8-0.4,1.3-0.4c0.3,0,0.6,0.1,0.8,0.3
			c0.2,0.2,0.3,0.4,0.4,0.7c0.1,0.2,0.1,0.4,0.1,0.6c0,0.1,0,0.2-0.1,0.3c0,0.1-0.1,0.2-0.2,0.2l-1.3,0.7c-0.1,0-0.1,0-0.2,0
			c0,0-0.1-0.1-0.1-0.2c-0.1-0.1-0.2-0.2-0.3-0.2c-0.2,0-0.4,0-0.5,0.2c-0.3,0.2-0.5,0.4-0.6,0.7C315.5,67.4,315.4,67.8,315.4,68.1z
			"/>
		<path class="st6" d="M325,66.6c0,0.1,0,0.2-0.1,0.3c0,0.1-0.1,0.2-0.2,0.2l-1.2,0.7c-0.1,0-0.1,0-0.2,0c-0.1-0.1-0.1-0.2-0.1-0.2
			v-3.9c0-0.3,0-0.6-0.2-0.9c-0.1-0.2-0.4-0.2-0.6,0c-0.3,0.2-0.5,0.4-0.6,0.8c-0.1,0.4-0.2,0.8-0.2,1.2v3.8c0,0.1,0,0.2-0.1,0.3
			c0,0.1-0.1,0.2-0.2,0.2l-1.2,0.7c-0.1,0-0.1,0-0.2,0c-0.1-0.1-0.1-0.2-0.1-0.2v-10c0-0.1,0-0.2,0.1-0.3c0-0.1,0.1-0.2,0.2-0.2
			l1.2-0.7c0.1,0,0.1,0,0.2,0c0.1,0.1,0.1,0.2,0.1,0.2v3.2c0.1-0.3,0.3-0.6,0.5-0.9c0.2-0.3,0.5-0.6,0.8-0.8s0.6-0.3,0.9-0.3
			s0.5,0.1,0.7,0.2c0.2,0.2,0.4,0.5,0.4,0.8c0.1,0.5,0.2,1,0.2,1.5L325,66.6z"/>
		<polygon class="st2" points="246.1,130.3 346,72.6 346,81.4 246.1,139.2 		"/>
		<path class="st8" d="M249.5,149.4h0.1v0.1v0.7c0,0.1,0,0.1,0,0.2c0,0.1-0.1,0.1-0.1,0.1l-2.7,1.6c-0.1,0-0.1,0-0.1,0
			s-0.1-0.1-0.1-0.2v-6.1c0-0.1,0-0.1,0.1-0.2c0-0.1,0.1-0.1,0.1-0.1l2.6-1.5h0.1l0,0l0.1,0.1v0.7c0,0.1,0,0.1-0.1,0.2
			c0,0.1-0.1,0.1-0.1,0.1l-2,1.1v1.5l1.9-1.1h0.1v0.1v0.7c0,0.1,0,0.1,0,0.2c0,0.1-0.1,0.1-0.1,0.1l-1.8,1.1v1.6L249.5,149.4z"/>
		<path class="st8" d="M251.1,145.1c0.1-0.2,0.2-0.4,0.4-0.6c0.1-0.2,0.3-0.3,0.4-0.4c0.2-0.1,0.4-0.2,0.6-0.1
			c0.2,0.1,0.3,0.2,0.4,0.4c0.1-0.3,0.3-0.6,0.4-0.9c0.1-0.1,0.2-0.2,0.3-0.3s0.2-0.1,0.3-0.2c0.2-0.1,0.4-0.2,0.6-0.2
			c0.2,0,0.3,0.1,0.4,0.3c0.1,0.2,0.2,0.4,0.2,0.6c0,0.3,0.1,0.5,0.1,0.8v2.5c0,0.1,0,0.1,0,0.2c0,0.1-0.1,0.1-0.1,0.1l-0.5,0.3
			h-0.1v-0.1V145c0-0.3,0-0.6-0.2-0.8c-0.1-0.1-0.3-0.1-0.4,0c-0.2,0.1-0.3,0.3-0.4,0.5c-0.1,0.3-0.2,0.7-0.2,1v2.6
			c0,0.1,0,0.1,0,0.2c0,0.1-0.1,0.1-0.1,0.1l-0.5,0.3h-0.1v-0.1v-2.5c0-0.3,0-0.6-0.2-0.8c-0.1-0.1-0.3-0.1-0.4,0
			c-0.2,0.1-0.3,0.3-0.4,0.5c-0.1,0.3-0.2,0.7-0.2,1v2.5c0,0.1,0,0.1,0,0.2c0,0.1-0.1,0.1-0.1,0.1l-0.5,0.3h-0.1V150v-4.4
			c0-0.1,0-0.1,0-0.2c0-0.1,0.1-0.1,0.1-0.1l0.5-0.3h0.1v0.1H251.1z"/>
		<path class="st8" d="M256,143.1c0-0.2,0.1-0.3,0.1-0.5c0.1-0.2,0.2-0.4,0.3-0.6c0.1-0.2,0.2-0.4,0.4-0.6c0.2-0.2,0.3-0.3,0.5-0.4
			c0.2-0.1,0.4-0.2,0.6-0.2s0.3,0,0.4,0.1s0.2,0.3,0.3,0.5c0.1,0.3,0.1,0.5,0.1,0.8v2.8c0,0.1,0,0.1,0,0.2c0,0.1-0.1,0.1-0.1,0.1
			l-0.5,0.3H258c0,0-0.1-0.1,0-0.1v-0.3c-0.1,0.2-0.2,0.5-0.4,0.7c-0.2,0.2-0.4,0.4-0.6,0.6c-0.1,0.1-0.3,0.1-0.5,0.2
			c-0.1,0-0.3,0-0.4-0.1s-0.2-0.2-0.2-0.3c-0.1-0.2-0.1-0.4-0.1-0.6c0-0.4,0.1-0.8,0.3-1.2c0.2-0.4,0.5-0.7,0.8-1l1-0.9
			c0-0.3,0-0.4-0.2-0.4c-0.1,0-0.3,0-0.4,0.1c-0.1,0-0.2,0.1-0.2,0.2c-0.1,0.1-0.1,0.2-0.2,0.3l-0.1,0.2l-0.1,0.1l-0.6,0.3H256
			C256,143.2,256,143.2,256,143.1z M257,145.2c0.1-0.1,0.3-0.2,0.4-0.3s0.2-0.3,0.3-0.4c0.1-0.1,0.1-0.3,0.2-0.4
			c0-0.1,0.1-0.3,0-0.4v-0.1l-0.8,0.7c-0.1,0.1-0.3,0.2-0.4,0.4c-0.1,0.1-0.1,0.3-0.1,0.4c0,0.1,0,0.2,0.1,0.2
			C256.8,145.3,256.9,145.2,257,145.2z"/>
		<path class="st8" d="M260.2,137.7C260.2,137.6,260.2,137.6,260.2,137.7c0.1,0,0.1,0,0.1,0s0.1,0.1,0,0.1v0.7c0,0.1,0,0.1,0,0.2
			c0,0.1-0.1,0.1-0.1,0.1l-0.5,0.3h-0.1V139v-0.7c0-0.1,0-0.1,0-0.2c0-0.1,0.1-0.1,0.1-0.1L260.2,137.7z M260.3,144.1
			c0,0.1,0,0.1,0,0.2c0,0.1-0.1,0.1-0.1,0.1l-0.5,0.3h-0.1c0,0-0.1-0.1,0-0.1v-4.4c0-0.1,0-0.1,0-0.2c0-0.1,0.1-0.1,0.1-0.1l0.5-0.3
			h0.1c0,0,0.1,0.1,0,0.1V144.1z"/>
		<path class="st8" d="M262,143.1c0,0.1,0,0.1,0,0.2c0,0.1-0.1,0.1-0.1,0.1l-0.5,0.3h-0.1c0,0-0.1-0.1,0-0.2v-6.2c0-0.1,0-0.1,0-0.2
			c0-0.1,0.1-0.1,0.1-0.1l0.5-0.3h0.1c0,0,0.1,0.1,0,0.1V143.1z"/>
		<path class="st8" d="M264.2,138.4c0-0.2,0.1-0.3,0.1-0.5c0.1-0.2,0.2-0.4,0.3-0.6c0.1-0.2,0.2-0.4,0.4-0.6
			c0.2-0.2,0.3-0.3,0.5-0.4c0.2-0.1,0.4-0.2,0.6-0.2s0.3,0,0.4,0.1s0.2,0.3,0.3,0.5c0.1,0.3,0.1,0.5,0.1,0.8v2.8c0,0.1,0,0.1,0,0.2
			c0,0.1-0.1,0.1-0.1,0.1l-0.5,0.3h-0.1c0,0-0.1-0.1,0-0.1v-0.3c-0.1,0.2-0.2,0.5-0.4,0.7c-0.2,0.2-0.4,0.4-0.6,0.6
			c-0.1,0.1-0.3,0.1-0.5,0.2c-0.1,0-0.3,0-0.4-0.1s-0.2-0.2-0.2-0.3c-0.1-0.2-0.1-0.4-0.1-0.6c0-0.4,0.1-0.8,0.3-1.2
			c0.2-0.4,0.5-0.7,0.8-1l1-0.9c0-0.3,0-0.4-0.2-0.4c-0.1,0-0.3,0-0.4,0.1c-0.1,0-0.2,0.1-0.2,0.2c-0.1,0.1-0.1,0.2-0.2,0.3L265,138
			l-0.1,0.1L264.2,138.4L264.2,138.4C264.2,138.5,264.2,138.4,264.2,138.4z M265.2,140.4c0.1-0.1,0.3-0.2,0.4-0.3s0.2-0.3,0.3-0.4
			c0.1-0.1,0.1-0.3,0.2-0.4c0-0.1,0-0.3,0-0.4v-0.1l-0.8,0.7c-0.1,0.1-0.3,0.2-0.4,0.4c-0.1,0.1-0.1,0.3-0.1,0.4
			c0,0.1,0,0.2,0.1,0.2C265,140.5,265.1,140.5,265.2,140.4L265.2,140.4z"/>
		<path class="st8" d="M268.9,134.3c0.1-0.1,0.2-0.1,0.3-0.1c0.1,0,0.2,0,0.3,0c0.1,0,0.1,0,0.2,0.1l0.1,0.1v-2c0-0.1,0-0.1,0-0.2
			c0-0.1,0-0.1,0.1-0.1l0.5-0.3h0.1c0,0,0.1,0.1,0,0.1v6.2c0,0.1,0,0.1,0,0.2c0,0.1-0.1,0.1-0.1,0.1l-0.5,0.3h-0.1
			c0,0-0.1-0.1,0-0.1v-0.2c0,0.1-0.1,0.2-0.1,0.3c-0.1,0.1-0.1,0.2-0.2,0.3s-0.2,0.2-0.3,0.3c-0.1,0.1-0.2,0.2-0.3,0.3
			c-0.2,0.1-0.4,0.2-0.6,0.1c-0.2,0-0.3-0.1-0.4-0.2c-0.1-0.2-0.2-0.3-0.3-0.6c-0.1-0.3-0.1-0.5-0.1-0.8c0-0.1,0-0.2,0-0.3
			s0-0.2,0-0.3c0-0.3,0-0.6,0.1-0.9c0.1-0.3,0.2-0.6,0.3-0.9c0.1-0.3,0.3-0.5,0.4-0.7C268.5,134.6,268.7,134.4,268.9,134.3z
			 M268.4,136.9c0,0.2,0,0.4,0,0.5c0,0.4,0.1,0.6,0.2,0.7c0.2,0.1,0.4,0.1,0.5,0c0.2-0.1,0.4-0.3,0.5-0.6s0.2-0.6,0.2-0.9
			c0-0.1,0-0.2,0-0.4c0-0.1,0-0.2,0-0.4s-0.1-0.5-0.2-0.6c-0.2-0.1-0.4-0.1-0.5,0c-0.2,0.1-0.4,0.3-0.5,0.6
			C268.5,136.2,268.4,136.6,268.4,136.9z"/>
		<path class="st8" d="M272.8,132.1c0.1-0.1,0.2-0.1,0.3-0.1c0.1,0,0.2,0,0.3,0c0.1,0,0.1,0,0.2,0.1l0.1,0.1v-2c0-0.1,0-0.1,0-0.2
			c0-0.1,0.1-0.1,0.1-0.1l0.5-0.3h0.1c0,0,0.1,0.1,0,0.1v6.2c0,0.1,0,0.1,0,0.2c0,0.1-0.1,0.1-0.1,0.1l-0.5,0.3h-0.1
			c0-0.1,0-0.1,0-0.2v-0.2l-0.1,0.3c-0.1,0.1-0.1,0.2-0.2,0.3s-0.2,0.2-0.3,0.3c-0.1,0.1-0.2,0.2-0.3,0.3c-0.2,0.1-0.4,0.2-0.6,0.1
			c-0.2,0-0.3-0.1-0.4-0.3s-0.2-0.3-0.3-0.6c-0.1-0.2-0.1-0.5-0.1-0.8c0-0.1,0-0.2,0-0.3s0-0.2,0-0.3c0-0.3,0-0.6,0.1-0.9
			c0.1-0.3,0.2-0.6,0.3-0.9c0.1-0.3,0.2-0.5,0.4-0.7C272.3,132.4,272.5,132.2,272.8,132.1z M272.2,134.7c0,0.2,0,0.4,0,0.5
			c0,0.4,0.1,0.6,0.3,0.7c0.2,0.1,0.4,0.1,0.5,0c0.2-0.1,0.4-0.3,0.5-0.6s0.2-0.6,0.2-0.9c0-0.1,0-0.2,0-0.4s0-0.3,0-0.4
			c0-0.2-0.1-0.5-0.2-0.6c-0.2-0.1-0.4-0.1-0.5,0c-0.2,0.1-0.4,0.3-0.5,0.6C272.3,134,272.2,134.4,272.2,134.7z"/>
		<path class="st8" d="M276.8,131c-0.2,0.1-0.4,0.3-0.5,0.6s-0.2,0.6-0.2,0.9v2.5c0,0.1,0,0.1,0,0.2c0,0.1-0.1,0.1-0.1,0.1l-0.5,0.3
			h-0.1c0,0-0.1-0.1,0-0.1V131c0-0.1,0-0.1,0-0.2c0-0.1,0.1-0.1,0.1-0.1l0.5-0.3h0.1c0,0,0.1,0.1,0,0.1v0.2c0.1-0.2,0.2-0.4,0.3-0.6
			c0.1-0.2,0.3-0.3,0.5-0.4l0.3-0.2h0.1c0,0,0.1,0.1,0,0.1v0.6c0,0.1,0,0.1,0,0.2c0,0.1-0.1,0.1-0.1,0.1L276.8,131z"/>
		<path class="st8" d="M277.7,131.8c0-0.4,0-0.7,0.1-1.1c0.1-0.3,0.2-0.7,0.3-1c0.1-0.3,0.3-0.6,0.5-0.8s0.4-0.4,0.6-0.6
			c0.2-0.1,0.4-0.2,0.6-0.2s0.4,0.1,0.5,0.3s0.3,0.4,0.3,0.6c0.1,0.3,0.1,0.6,0.1,0.9v0.4c0,0.1,0,0.1,0,0.2c0,0.1-0.1,0.1-0.1,0.1
			l-2.1,1.2c0,0.1,0,0.2,0.1,0.4c0,0.1,0.1,0.1,0.2,0.2c0.1,0,0.2,0,0.2,0c0.1,0,0.2-0.1,0.3-0.1c0.1-0.1,0.2-0.1,0.3-0.2
			c0.1-0.1,0.1-0.2,0.2-0.3c0-0.1,0.1-0.1,0.1-0.2l0.1-0.1l0.5-0.3h0.1c0,0,0.1,0.1,0,0.1c0,0.1,0,0.3-0.1,0.4
			c-0.1,0.2-0.2,0.4-0.3,0.6c-0.1,0.2-0.3,0.4-0.4,0.6c-0.2,0.2-0.4,0.4-0.6,0.5s-0.4,0.2-0.6,0.2s-0.4-0.1-0.5-0.3
			s-0.2-0.4-0.3-0.6C277.7,132.4,277.7,132.1,277.7,131.8z M279.2,129.5c-0.1,0.1-0.2,0.2-0.3,0.3c-0.1,0.1-0.2,0.2-0.2,0.3
			c-0.1,0.1-0.1,0.2-0.1,0.4c0,0.1,0,0.2-0.1,0.3l1.4-0.8c0-0.1,0-0.2,0-0.3s-0.1-0.2-0.1-0.2c-0.1-0.1-0.1-0.1-0.2-0.1
			C279.4,129.4,279.3,129.4,279.2,129.5z"/>
		<path class="st8" d="M283.1,129.7v-0.1H283c-0.1,0-0.2,0-0.3,0l-0.5,0.1c-0.1,0-0.3,0-0.5,0c-0.1,0-0.2-0.1-0.3-0.2
			c-0.1-0.1-0.1-0.2-0.1-0.4s0-0.3,0-0.5s0-0.4,0.1-0.6c0.1-0.2,0.1-0.4,0.3-0.6c0.1-0.2,0.2-0.4,0.4-0.6c0.2-0.2,0.3-0.3,0.5-0.4
			s0.3-0.2,0.5-0.2c0.1,0,0.3,0,0.4,0c0.1,0.1,0.2,0.1,0.3,0.3c0.1,0.1,0.1,0.2,0.1,0.4c0,0.1,0,0.1,0,0.2s-0.1,0.1-0.1,0.2
			l-0.5,0.3h-0.1l-0.1-0.1H283c-0.1,0-0.2,0.1-0.3,0.1c-0.1,0.1-0.2,0.2-0.3,0.3c-0.1,0.1-0.1,0.2-0.1,0.4c0,0.1,0,0.1,0,0.2
			l0.1,0.1h0.3l0.4-0.1c0.3-0.1,0.6-0.1,0.8,0.1c0.2,0.2,0.2,0.5,0.2,0.8c0,0.2,0,0.4-0.1,0.6c-0.1,0.2-0.2,0.4-0.3,0.6
			c-0.1,0.2-0.3,0.4-0.4,0.6c-0.2,0.2-0.4,0.3-0.6,0.5c-0.2,0.1-0.4,0.2-0.6,0.2c-0.1,0-0.3,0-0.4-0.1s-0.2-0.2-0.3-0.3
			c-0.1-0.1-0.1-0.3-0.1-0.4c0-0.1,0-0.1,0-0.2c0-0.1,0.1-0.1,0.1-0.1l0.5-0.3h0.1l0.1,0.1c0,0,0.1,0.1,0.2,0.1s0.2-0.1,0.3-0.1
			l0.2-0.1l0.2-0.2l0.1-0.2C283.1,129.9,283.1,129.8,283.1,129.7z"/>
		<path class="st8" d="M286.3,127.9L286.3,127.9l-0.1-0.1h-0.3l-0.5,0.1c-0.1,0-0.3,0-0.5,0c-0.1,0-0.2-0.1-0.3-0.2
			c-0.1-0.1-0.1-0.2-0.1-0.3c0-0.2,0-0.3,0-0.5s0-0.4,0.1-0.6c0.1-0.4,0.3-0.9,0.6-1.2c0.1-0.2,0.3-0.3,0.5-0.4s0.3-0.2,0.5-0.2
			c0.1,0,0.3,0,0.4,0s0.2,0.1,0.3,0.2c0.1,0.1,0.1,0.3,0.1,0.4s0,0.1,0,0.2s-0.1,0.1-0.1,0.1l-0.5,0.3c-0.1,0-0.1,0-0.1,0l-0.1-0.1
			h-0.1c-0.1,0-0.2,0-0.3,0.1c-0.1,0.1-0.2,0.2-0.3,0.3c-0.1,0.1-0.1,0.2-0.1,0.4c0,0.1,0,0.1,0,0.2l0.1,0.1h0.3l0.4-0.1
			c0.4-0.1,0.6-0.1,0.8,0.1c0.2,0.2,0.2,0.5,0.2,0.8c0,0.2,0,0.4-0.1,0.6s-0.2,0.4-0.3,0.6c-0.1,0.2-0.3,0.4-0.4,0.6
			c-0.2,0.2-0.4,0.3-0.6,0.4c-0.2,0.1-0.4,0.2-0.6,0.2c-0.1,0-0.3,0-0.4-0.1s-0.2-0.2-0.3-0.3c-0.1-0.1-0.1-0.3-0.1-0.4
			c0-0.1,0-0.1,0-0.2c0-0.1,0.1-0.1,0.1-0.1l0.5-0.3c0.1,0,0.1,0,0.1,0l0.1,0.1c0,0,0.1,0.1,0.2,0.1s0.2,0,0.3-0.1l0.2-0.1l0.2-0.2
			c0.1-0.1,0.1-0.1,0.1-0.2C286.3,128,286.3,127.9,286.3,127.9z"/>
		<polygon class="st2" points="246.1,156.9 346,99.2 346,108.1 246.1,165.8 		"/>
		<path class="st8" d="M248.6,174.4l1.2-3.8c0-0.1,0-0.1,0.1-0.2c0-0.1,0.1-0.2,0.2-0.2l0.4-0.2h0.1v0.1v6.1c0,0.1,0,0.1,0,0.2
			c0,0.1-0.1,0.1-0.1,0.1l-0.5,0.3h-0.1v-0.1V173l-0.8,2.6c0,0.1-0.1,0.1-0.1,0.2c0,0.1-0.1,0.1-0.1,0.2l-0.3,0.2
			c-0.1,0-0.1,0-0.1,0l-0.1-0.1l-0.8-1.7v3.7c0,0.1,0,0.1-0.1,0.2c0,0.1-0.1,0.1-0.1,0.1l-0.5,0.3h-0.1l-0.1-0.1v-6.1
			c0-0.1,0-0.1,0.1-0.2c0-0.1,0.1-0.1,0.1-0.1l0.4-0.2c0.1-0.1,0.1-0.1,0.2,0l0.1,0.1L248.6,174.4z"/>
		<path class="st8" d="M251.4,173.6c0-0.4,0-0.7,0.1-1.1c0.1-0.3,0.2-0.7,0.3-1s0.3-0.6,0.5-0.8s0.4-0.4,0.6-0.6
			c0.2-0.1,0.4-0.2,0.6-0.2c0.2,0,0.4,0.1,0.5,0.3s0.2,0.4,0.3,0.6c0.1,0.3,0.1,0.6,0.1,0.9v0.4c0,0.1,0,0.1-0.1,0.2
			c0,0.1-0.1,0.1-0.1,0.1l-2,1.2c0,0.1,0,0.2,0.1,0.4c0,0.1,0.1,0.1,0.1,0.2c0.1,0,0.2,0,0.2,0c0.1,0,0.2,0,0.3-0.1s0.2-0.1,0.3-0.2
			c0.1-0.1,0.2-0.2,0.2-0.3s0.1-0.1,0.1-0.2l0.1-0.1l0.5-0.3h0.1c0,0.1,0,0.1,0,0.2c0,0.1,0,0.3-0.1,0.4c-0.1,0.2-0.2,0.4-0.3,0.6
			c-0.1,0.2-0.3,0.4-0.4,0.6c-0.2,0.2-0.4,0.4-0.6,0.5c-0.2,0.1-0.4,0.2-0.6,0.2c-0.2,0-0.4-0.1-0.5-0.3s-0.2-0.4-0.3-0.6
			C251.4,174.3,251.4,173.9,251.4,173.6z M252.9,171.4c-0.1,0.1-0.2,0.2-0.3,0.3s-0.2,0.2-0.2,0.3c-0.1,0.1-0.1,0.2-0.1,0.4
			c0,0.1,0,0.2-0.1,0.3l1.4-0.8c0-0.1,0-0.2,0-0.3s-0.1-0.2-0.1-0.2c0-0.1-0.1-0.1-0.2-0.1C253.1,171.2,253,171.3,252.9,171.4z"/>
		<path class="st8" d="M256.8,171.6v-0.1c-0.1,0-0.1,0-0.2,0s-0.2,0-0.3,0.1l-0.5,0.1c-0.1,0-0.3,0-0.4,0c-0.1,0-0.2-0.1-0.3-0.2
			c-0.1-0.1-0.1-0.2-0.1-0.4s0-0.3,0-0.5s0-0.4,0.1-0.6c0.1-0.2,0.1-0.4,0.3-0.6c0.1-0.2,0.2-0.4,0.4-0.6c0.1-0.2,0.3-0.3,0.5-0.4
			c0.2-0.1,0.3-0.2,0.5-0.2c0.1,0,0.3,0,0.4,0c0.1,0.1,0.2,0.1,0.3,0.3c0.1,0.1,0.1,0.3,0.1,0.4c0,0.1,0,0.1,0,0.2
			c0,0.1-0.1,0.1-0.1,0.1l-0.5,0.3h-0.1l-0.1-0.1h-0.1c-0.1,0-0.2,0-0.3,0.1c-0.1,0.1-0.2,0.2-0.3,0.3c-0.1,0.1-0.2,0.2-0.1,0.4
			c0,0.1,0,0.1,0,0.2l0.1,0.1h0.3l0.4-0.1c0.4-0.1,0.6,0,0.8,0.1c0.2,0.2,0.3,0.5,0.2,0.8c0,0.2,0,0.4-0.1,0.6
			c-0.1,0.2-0.2,0.4-0.3,0.6c-0.1,0.2-0.3,0.4-0.4,0.6c-0.2,0.2-0.4,0.3-0.6,0.5c-0.2,0.1-0.4,0.2-0.6,0.2c-0.1,0-0.3,0-0.4-0.1
			c-0.1-0.1-0.2-0.2-0.3-0.3s-0.1-0.3-0.1-0.4c0-0.1,0-0.1,0.1-0.2c0-0.1,0.1-0.1,0.1-0.1l0.5-0.3c0.1,0,0.1,0,0.1,0l0.1,0.1
			c0,0,0.1,0.1,0.2,0.1c0.1,0,0.2-0.1,0.3-0.1c0.1,0,0.1-0.1,0.2-0.1s0.1-0.1,0.2-0.2c0.1-0.1,0.1-0.1,0.1-0.2
			C256.8,171.7,256.8,171.6,256.8,171.6z"/>
		<path class="st8" d="M260,169.7c0-0.1,0-0.1,0-0.1h-0.1c-0.1,0-0.2,0-0.3,0.1l-0.5,0.1c-0.1,0-0.3,0-0.5,0c-0.1,0-0.2-0.1-0.3-0.2
			c-0.1-0.1-0.1-0.2-0.1-0.3c0-0.2-0.1-0.3,0-0.5c0-0.2,0-0.4,0.1-0.6c0.1-0.2,0.1-0.4,0.3-0.6c0.1-0.2,0.2-0.4,0.4-0.6
			c0.2-0.2,0.3-0.3,0.5-0.4c0.2-0.1,0.4-0.2,0.5-0.2s0.3,0,0.4,0s0.2,0.1,0.3,0.2c0.1,0.1,0.1,0.3,0.1,0.4c0,0.1,0,0.1,0,0.2
			c0,0.1-0.1,0.1-0.1,0.1l-0.5,0.3c-0.1,0-0.1,0.1-0.1,0c0,0-0.1,0-0.1-0.1h-0.1c-0.1,0-0.2,0.1-0.3,0.1c-0.1,0.1-0.2,0.2-0.3,0.3
			c-0.1,0.1-0.1,0.2-0.1,0.4v0.1h0.1h0.3l0.4-0.1c0.3-0.1,0.6-0.1,0.8,0.1c0.2,0.2,0.3,0.5,0.2,0.8c0,0.2,0,0.4-0.1,0.6
			c-0.1,0.2-0.2,0.4-0.3,0.6c-0.1,0.2-0.3,0.4-0.4,0.6c-0.2,0.2-0.4,0.3-0.6,0.4c-0.2,0.1-0.4,0.2-0.6,0.2c-0.1,0-0.3,0-0.4-0.1
			s-0.2-0.2-0.3-0.3c-0.1-0.1-0.1-0.3-0.1-0.4c0-0.1,0-0.1,0-0.2c0-0.1,0.1-0.1,0.1-0.1l0.5-0.3c0.1,0,0.1,0,0.1,0l0.1,0.1
			c0.1,0,0.1,0.1,0.2,0.1s0.2,0,0.3-0.1l0.2-0.1c0.1,0,0.1-0.1,0.2-0.2c0.1-0.1,0.1-0.1,0.1-0.2C260,169.8,260,169.8,260,169.7z"/>
		<path class="st8" d="M261.5,166.6c0-0.2,0.1-0.3,0.1-0.5c0.1-0.2,0.1-0.4,0.3-0.6c0.1-0.2,0.2-0.4,0.4-0.6
			c0.2-0.2,0.3-0.3,0.5-0.4c0.2-0.1,0.4-0.2,0.6-0.2s0.3,0,0.4,0.1s0.2,0.3,0.3,0.5c0.1,0.3,0.1,0.5,0.1,0.8v2.8c0,0.1,0,0.1,0,0.2
			c0,0.1-0.1,0.1-0.1,0.1l-0.5,0.3h-0.1c0,0-0.1-0.1,0-0.2v-0.3c-0.1,0.2-0.2,0.5-0.4,0.7c-0.2,0.2-0.4,0.4-0.6,0.6
			c-0.1,0.1-0.3,0.2-0.5,0.2c-0.1,0-0.2,0-0.4-0.1c-0.1-0.1-0.2-0.2-0.2-0.4c-0.1-0.2-0.1-0.4-0.1-0.5c0-0.4,0.1-0.8,0.3-1.2
			c0.2-0.4,0.5-0.7,0.8-1l1-0.8c0-0.3-0.1-0.4-0.2-0.5c-0.1,0-0.3,0-0.4,0.1s-0.2,0.1-0.2,0.2c-0.1,0.1-0.1,0.2-0.2,0.3
			c0,0.1-0.1,0.1-0.1,0.2l-0.1,0.1l-0.6,0.3h-0.1C261.5,166.7,261.5,166.6,261.5,166.6z M262.5,168.7c0.1-0.1,0.3-0.2,0.4-0.3
			s0.2-0.3,0.3-0.4c0.1-0.1,0.1-0.3,0.2-0.4c0-0.1,0.1-0.3,0.1-0.4V167l-0.8,0.7c-0.1,0.1-0.3,0.3-0.4,0.4c-0.1,0.1-0.1,0.3-0.1,0.4
			c0,0.1,0,0.2,0.1,0.2C262.3,168.8,262.4,168.7,262.5,168.7L262.5,168.7z"/>
		<path class="st8" d="M266.4,168.4c0.1-0.1,0.2-0.1,0.3-0.2c0.1-0.1,0.2-0.2,0.3-0.3c0.1-0.1,0.1-0.3,0.2-0.4
			c0-0.2,0.1-0.3,0.1-0.5v-0.4c0,0.1-0.1,0.2-0.1,0.3s-0.1,0.2-0.2,0.3s-0.2,0.2-0.3,0.3c-0.1,0.1-0.2,0.2-0.3,0.3
			c-0.2,0.1-0.4,0.2-0.5,0.1c-0.2,0-0.3-0.1-0.4-0.3s-0.2-0.3-0.2-0.5c-0.1-0.3-0.1-0.5-0.1-0.8v-0.7c0-0.3,0.1-0.6,0.1-0.9
			c0.1-0.3,0.2-0.6,0.3-0.9c0.1-0.3,0.3-0.5,0.4-0.7c0.2-0.2,0.3-0.4,0.5-0.5c0.1-0.1,0.2-0.1,0.3-0.1c0.1,0,0.2,0,0.3,0
			c0.1,0,0.1,0,0.2,0.1l0.1,0.1v-0.2c0-0.1,0-0.1,0-0.2c0-0.1,0.1-0.1,0.1-0.1l0.5-0.3h0.1c0,0,0.1,0.1,0,0.1v4.4
			c0,0.7-0.1,1.4-0.4,2c-0.3,0.5-0.7,1-1.1,1.2c-0.2,0.1-0.4,0.2-0.6,0.2s-0.3,0-0.5-0.1c-0.1-0.1-0.2-0.2-0.3-0.3
			c-0.1-0.1-0.1-0.3-0.1-0.5c0-0.1,0-0.1,0-0.2c0-0.1,0.1-0.1,0.1-0.1l0.4-0.2h0.1l0.1,0.1c0,0.1,0.1,0.1,0.2,0.1
			C266.1,168.6,266.3,168.5,266.4,168.4z M265.6,165.1c0,0.2,0,0.4,0,0.5c0,0.4,0.1,0.6,0.3,0.7c0.2,0.1,0.4,0.1,0.5,0
			c0.2-0.1,0.4-0.3,0.5-0.6s0.2-0.6,0.2-0.9c0-0.1,0-0.2,0-0.4s0-0.3,0-0.4c0-0.2-0.1-0.5-0.2-0.6s-0.4-0.1-0.5,0
			c-0.2,0.1-0.4,0.3-0.5,0.6C265.7,164.4,265.6,164.8,265.6,165.1z"/>
		<path class="st8" d="M268.6,163.7c0-0.4,0-0.7,0.1-1.1c0.1-0.3,0.2-0.7,0.3-1c0.1-0.3,0.3-0.6,0.5-0.8s0.4-0.4,0.6-0.6
			c0.2-0.1,0.4-0.2,0.6-0.2s0.4,0.1,0.5,0.2c0.1,0.2,0.2,0.4,0.3,0.6c0.1,0.3,0.1,0.6,0.1,0.9v0.4c0,0.1,0,0.1,0,0.2
			c0,0.1-0.1,0.1-0.1,0.1l-2,1.2c0,0.1,0,0.2,0.1,0.4c0,0.1,0.1,0.1,0.1,0.2c0.1,0,0.2,0,0.2,0c0.1,0,0.2-0.1,0.3-0.1
			c0.1-0.1,0.2-0.2,0.3-0.3c0.1-0.1,0.1-0.2,0.2-0.3c0-0.1,0.1-0.1,0.1-0.2l0.1-0.1l0.5-0.3h0.1v0.1c0,0.1,0,0.3-0.1,0.4
			c-0.1,0.2-0.2,0.4-0.3,0.6c-0.1,0.2-0.3,0.4-0.4,0.6c-0.2,0.2-0.4,0.4-0.6,0.5s-0.4,0.2-0.6,0.2s-0.4-0.1-0.5-0.3
			c-0.2-0.2-0.3-0.4-0.3-0.6C268.6,164.3,268.6,164,268.6,163.7z M270.1,161.4c-0.1,0.1-0.2,0.2-0.3,0.3c-0.1,0.1-0.1,0.2-0.2,0.3
			s-0.1,0.2-0.1,0.4c0,0.1,0,0.2-0.1,0.3l1.4-0.8c0-0.1,0-0.2,0-0.3s-0.1-0.2-0.1-0.2c-0.1-0.1-0.1-0.1-0.2-0.1
			C270.3,161.3,270.2,161.3,270.1,161.4L270.1,161.4z"/>
		<polygon class="st2" points="246.1,183.6 346,125.9 346,156.9 246.1,214.7 		"/>
	</g>
</g>
<g id="freepik--character-2--inject-44">
	<g id="freepik--window--inject-44_1_">
		<path class="st2" d="M211.4,68.4L95.7,135.1c-1.5,1-2.5,2.7-2.6,4.5v257.1c0.1,1.8,1.1,3.5,2.6,4.5l1.6,0.9c1.6,0.8,3.6,0.8,5.2,0
			l115.7-66.9c1.5-1,2.5-2.7,2.6-4.5v-257c-0.1-1.8-1.1-3.5-2.6-4.5l-1.6-0.9C215,67.6,213.1,67.6,211.4,68.4z"/>
		<path class="st3" d="M220.9,331c0,2.3-1.6,3.8-3.6,4.9l-113.7,65.7c-2,1.1-3.6,0.2-3.6-2.1V144.7l0,0c0-2.6,1.4-4.9,3.6-6.2
			l113.8-65.7c1.2-0.7,2.6-0.3,3.3,0.9c0.2,0.4,0.3,0.8,0.3,1.2l0,0V331H220.9z"/>
		<path class="st2" d="M218.5,73.5L218.5,73.5c0.8,0,1.4,0.6,1.4,1.4V331c0,1.5-1,2.8-3.1,4l-113.7,65.7c-0.3,0.2-0.7,0.3-1.1,0.4
			c-0.9,0-1-1-1-1.6V144.7c0-2.2,1.2-4.2,3.1-5.3l113.8-65.7C218,73.5,218.3,73.5,218.5,73.5 M218.5,72.5c-0.4,0-0.8,0.1-1.2,0.3
			l-113.8,65.7c-2.2,1.3-3.6,3.6-3.6,6.2v254.8c0,1.6,0.8,2.6,2,2.6c0.6,0,1.1-0.2,1.6-0.5l113.7-65.7c2-1.1,3.6-2.6,3.6-4.9V74.9
			C220.9,73.5,219.8,72.5,218.5,72.5z"/>
		<path class="st5" d="M220.9,73.8v1c0-1.3-1.1-2.4-2.4-2.4c-0.4,0-0.8,0.1-1.2,0.3l-113.8,65.8c-1.1,0.6-2,1.5-2.6,2.6v0.1l-7-4.1
			c0.4-0.8,1.1-1.5,1.9-2l115.7-66.7c1.6-0.8,3.6-0.8,5.2,0l1.6,0.9C219.8,70.3,220.8,72,220.9,73.8z"/>
		<path class="st21" d="M122.2,142.1c0-0.1,0-0.1,0-0.2v-0.8l-1.3,0.8c-0.1,0-0.1,0-0.1-0.1v-0.3c0-0.1,0-0.1,0-0.2
			c0-0.1,0-0.1,0-0.2l1.4-3.8c0-0.1,0-0.1,0.1-0.1l0.1-0.1l0.2-0.1c0.1,0,0.1,0,0.1,0s0,0.1,0,0.2v2.9l0.3-0.2c0.1,0,0.1,0,0.1,0
			c0,0.1,0,0.1,0,0.2v0.2c0,0.1,0,0.1,0,0.2c0,0.1-0.1,0.1-0.1,0.1l-0.3,0.2v0.8c0,0.1,0,0.1,0,0.2c0,0.1-0.1,0.1-0.1,0.1
			L122.2,142.1C122.2,142.2,122.2,142.2,122.2,142.1z M122.2,140.4v-2.1l-1,2.6L122.2,140.4z"/>
		<path class="st21" d="M123.7,140.7c-0.3-0.5-0.4-1.1-0.4-1.7c0-0.7,0.1-1.5,0.4-2.2c0.2-0.5,0.6-1,1.1-1.3
			c0.2-0.1,0.3-0.2,0.5-0.2c0.1,0,0.3,0,0.4,0.1c0,0,0,0,0,0.1v0.1l-0.1,0.4v0.1h-0.1c-0.2-0.1-0.5,0-0.7,0.1
			c-0.3,0.2-0.6,0.5-0.7,0.9c-0.2,0.5-0.3,1-0.3,1.6c0,0.4,0,0.9,0.3,1.3c0.2,0.2,0.4,0.2,0.7,0.1c0.1-0.1,0.2-0.1,0.3-0.2
			c0.1-0.1,0.2-0.2,0.3-0.3v-1.4l-0.6,0.3h-0.1c0-0.1,0-0.1,0-0.2v-0.2c0-0.1,0-0.1,0-0.2c0-0.1,0.1-0.1,0.1-0.1l0.9-0.5
			c0.1,0,0.1,0,0.1,0c0,0.1,0,0.1,0,0.2v1.9c0,0.1,0,0.1,0,0.2v0.1c-0.2,0.4-0.6,0.8-1,1C124.3,141.1,124,141,123.7,140.7z"/>
		<path class="st21" d="M134.8,134c0,0.6-0.3,1.2-0.8,1.6c-0.4,0.3-0.8-0.1-0.8-0.7c0-0.6,0.3-1.2,0.8-1.6
			C134.5,133.1,134.8,133.4,134.8,134z"/>
		<path class="st21" d="M134,131.4c-0.9,0.6-1.5,1.6-1.8,2.7c-0.1,0.2,0,0.5,0.1,0.5l0,0c0.1,0.1,0.4-0.1,0.4-0.4
			c0.2-0.8,0.6-1.4,1.3-1.9c0.4-0.3,0.9-0.2,1.1,0.2c0.1,0.1,0.1,0.2,0.1,0.3c0.1,0.2,0.3,0.1,0.4-0.1l0,0c0.1-0.2,0.1-0.4,0.1-0.6
			c-0.2-0.6-0.8-1-1.4-0.8C134.2,131.2,134.1,131.3,134,131.4z"/>
		<path class="st21" d="M134,129.5c-1.3,0.9-2.3,2.3-2.7,3.9c-0.1,0.3-0.1,0.5,0.1,0.6l0,0c0.1,0.1,0.4-0.1,0.4-0.4
			c0.4-1.3,1.1-2.4,2.2-3.2c0.7-0.5,1.6-0.3,2.1,0.3c0.1,0.1,0.1,0.2,0.2,0.3c0.1,0.2,0.3,0.1,0.4-0.1l0,0c0.1-0.2,0.1-0.4,0.1-0.7
			c-0.4-0.9-1.5-1.3-2.4-0.9C134.2,129.4,134.1,129.4,134,129.5z"/>
		<path class="st21" d="M159.9,117.2h0.1v0.1v0.8c0,0.1,0,0.1,0,0.2l-0.1,0.1l-0.5,0.3h-0.1v-0.1v-0.8c0-0.1,0-0.1,0-0.2
			c0,0,0-0.1,0.1-0.1L159.9,117.2z M159.9,119.9h0.1v0.1v0.8c0,0.1,0,0.1,0,0.2l-0.1,0.1l-0.5,0.3h-0.1l0,0v-0.1v-0.8
			c0-0.1,0-0.1,0-0.2c0,0,0-0.1,0.1-0.1L159.9,119.9z"/>
		<path class="st21" d="M162.5,119.5L162.5,119.5c-0.1,0-0.1-0.1-0.1-0.1v-0.9l-1.6,0.9h-0.1v-0.1v-0.6c0-0.1,0-0.1,0-0.2
			s0-0.1,0.1-0.2l1.5-3.9c0-0.1,0.1-0.2,0.2-0.3l0.4-0.2h0.1v0.1v3.1l0.4-0.3h0.1v0.1v0.6c0,0.1,0,0.1,0,0.2l-0.1,0.1l-0.4,0.3v0.9
			c0,0.1,0,0.1,0,0.2l-0.1,0.1L162.5,119.5z M162.4,117.5v-1.7l-0.9,2.2L162.4,117.5z"/>
		<path class="st21" d="M157.4,122.5h-0.1v-0.1v-0.9l-1.6,0.9h-0.1v-0.1v-0.6c0-0.1,0-0.1,0-0.2s0-0.1,0.1-0.2l1.6-3.9
			c0-0.1,0.1-0.2,0.2-0.3l0.4-0.2h0.1v0.1v3.1l0.4-0.3h0.1l0,0v0.1v0.6c0,0.1,0,0.1,0,0.2c0,0,0,0.1-0.1,0.1l-0.4,0.3v1
			c0,0.1,0,0.1,0,0.2c0,0,0,0.1-0.1,0.1L157.4,122.5z M157.2,120.5v-1.7l-0.9,2.2L157.2,120.5z"/>
		<path class="st21" d="M164.6,113.1c0-0.1,0-0.1,0-0.2l0.1-0.1l1.9-1.1h0.1v0.1v0.6c0,0.1,0,0.1,0,0.2l-0.1,0.1l-1.4,0.8l-0.1,1
			c0.1-0.1,0.2-0.2,0.3-0.3l0.2-0.2c0.2-0.1,0.3-0.2,0.5-0.2c0.1,0,0.3,0,0.4,0.1c0.1,0.1,0.2,0.2,0.3,0.4c0.1,0.2,0.1,0.5,0.1,0.7
			c0,0.3,0,0.6-0.1,0.9s-0.2,0.5-0.3,0.8c-0.1,0.2-0.2,0.4-0.4,0.6s-0.3,0.3-0.5,0.4s-0.4,0.2-0.6,0.2c-0.1,0-0.3,0-0.4-0.1
			c-0.1-0.1-0.2-0.2-0.3-0.3c-0.1-0.2-0.1-0.3-0.1-0.5c0-0.1,0-0.1,0-0.2c0,0,0-0.1,0.1-0.1l0.4-0.2h0.1l0.1,0.1
			c0,0.1,0,0.2,0.1,0.2c0,0,0.1,0.1,0.2,0.1c0.1,0,0.1,0,0.2,0c0.1,0,0.1-0.1,0.2-0.1c0.2-0.1,0.4-0.3,0.5-0.5s0.2-0.5,0.2-0.8
			c0-0.2,0-0.4-0.2-0.5c-0.1-0.1-0.3-0.1-0.5,0c-0.1,0.1-0.2,0.1-0.2,0.2c-0.1,0-0.1,0.1-0.1,0.2l-0.1,0.1l-0.1,0.1l-0.5,0.3h-0.1
			v-0.1L164.6,113.1z"/>
		<polygon class="st21" points="107.7,151.1 107.7,149.5 109.1,148.7 109.1,150.3 		"/>
		<polygon class="st21" points="109.8,149.9 109.8,146.7 111.2,145.9 111.2,149.1 		"/>
		<polygon class="st21" points="111.9,148.7 111.9,143.9 113.3,143.1 113.3,147.9 		"/>
		<polygon class="st21" points="114,147.5 114,141 115.4,140.2 115.4,146.7 		"/>
		<path class="st21" d="M212.4,85.4c-0.1-0.2-0.3-0.3-0.5-0.2l0,0l-5.2,3c-0.4,0.4-0.6,1-0.6,1.6v2.9c0,0.3,0.1,0.7,0.2,0.9
			c0,0.1,0.1,0.2,0.2,0.2c0.1,0.1,0.2,0.1,0.3,0l5.2-3c0.4-0.4,0.6-1,0.6-1.6v-3C212.6,86,212.6,85.7,212.4,85.4z M206.4,93.3
			c-0.1-0.1-0.1-0.3-0.1-0.4V90c0-0.5,0.1-0.9,0.5-1.2l5.2-3c0.1,0,0.1,0,0.2,0c0,0,0,0,0.1,0.1s0.1,0.3,0.1,0.4v2.9
			c0,0.5-0.1,0.9-0.5,1.2l-5.2,3C206.6,93.5,206.5,93.5,206.4,93.3C206.4,93.4,206.4,93.4,206.4,93.3L206.4,93.3z"/>
		<path class="st21" d="M207.8,88.7v3.5l-0.8,0.5c-0.1,0-0.1,0-0.1,0l0,0V90c0-0.3,0.1-0.7,0.3-0.9L207.8,88.7z"/>
		<polygon class="st21" points="208.2,88.5 209.1,87.9 209.1,91.4 208.2,92 		"/>
		<polygon class="st21" points="209.5,87.7 210.5,87.1 210.5,90.6 209.5,91.2 		"/>
		<path class="st21" d="M211.9,86.6v2.5c0,0.5-0.2,0.9-0.6,1.1l-0.3,0.2v-3.5l0.8-0.4C211.7,86.4,211.8,86.5,211.9,86.6
			C211.9,86.5,211.9,86.6,211.9,86.6z"/>
		<path class="st21" d="M212.8,86.3c0.1-0.1,0.3,0.3,0.3,0.9v0.6c0,0.4-0.1,0.9-0.3,1.3l-0.3,0.2v-2.8L212.8,86.3z"/>
		<polygon class="st21" points="198.1,95.2 203.2,90.6 201.6,97.3 200.9,94.5 		"/>
		<path class="st6" d="M110.1,158l81.9-47.3c1.4-0.8,2.5-0.1,2.5,1.4v7.7c-0.1,1.7-1,3.3-2.5,4.3l-81.9,47.3
			c-1.4,0.8-2.5,0.1-2.5-1.4v-7.6C107.7,160.5,108.6,159,110.1,158z"/>
		<path class="st2" d="M200.6,118.1c-0.3,0-0.7-0.2-0.8-0.5c-0.3-0.4-0.1-1,0.3-1.3l0,0L211,110c0.5-0.1,1.1,0.2,1.2,0.7
			c0.1,0.3,0,0.7-0.2,0.9l-10.9,6.4C201,118.1,200.8,118.1,200.6,118.1z"/>
		<path class="st2" d="M200.6,113.4c-0.5,0-0.9-0.4-1-0.9c0-0.3,0.2-0.7,0.5-0.8l10.8-6.3c0.5-0.3,1-0.1,1.3,0.3
			c0.3,0.5,0.1,1-0.3,1.3l-10.8,6.3C201,113.4,200.8,113.4,200.6,113.4z"/>
		<path class="st2" d="M200.6,108.8c-0.5-0.1-0.9-0.6-0.8-1.1c0-0.3,0.2-0.5,0.4-0.6l10.8-6.3c0.5-0.2,1-0.1,1.3,0.3s0.1,1-0.3,1.3
			l0,0l-10.8,6.3C201,108.7,200.8,108.8,200.6,108.8z"/>
	</g>
	<g id="freepik--Character--inject-44">
		<g id="freepik--Botom--inject-44">
			<path class="st8" d="M100,344.8v54.9c0,2.2,1.6,3.1,3.5,2l34.3-19.8l3.3-1.9l26.5-15.3c0.1-5,0.3-9.2,0.4-12.3
				c0.1-3.6,0.2-5.7,0.2-5.7L100,344.8z"/>
		</g>
		<g id="freepik--Top--inject-44">
			<path class="st22" d="M206.5,271.1c0.3-1.4,0.5-2.8,0.6-4.2c0.6-6.8,4.1-12.9,7.9-18.4c0.6-0.9,1.3-1.9,2-2.8
				c0.3-0.4,0.6-0.9,0.9-1.4c0.2-0.5,0.5-0.9,1.1-0.7c0.5,0.1,0.8,0.4,1.1,0.8c0.8,1.3,1.1,3,0.7,4.5c-0.4,1.5-1,3-1.6,4.4
				c-0.5,1.1,0.9,0.8,1.5,0.5c2.9-1.2,5.9-5.3,7.7-7.9c1.2-1.7,2.1-3.5,3.6-5c0.9-0.9,2-1.6,3.3-1.9c0.9-0.1,1.7,0,1.8,1.1
				c0,0.7-0.2,1.3-0.5,1.9c-0.5,1.3-1,2.4-0.4,3.8c0.4,0.8,0.8,1.7,1,2.6c0.2,1.2-0.4,2.3-0.3,3.5s0.6,1.9,0.8,2.9s-0.5,2.5-0.9,3.5
				c-0.9,2.3-2.1,4.5-3.5,6.5c-2.2,3-4.8,5.8-7.6,8.3c-1.7,1.3-3,2.9-4,4.8c-0.8,2-1.3,4-1.7,6.1c-0.5,2.6-1,5.2-1.6,7.8
				c-5.7,28-8.6,29.5-12.3,33.7c-2.2,2.5-8.6,4.9-17.2-4C179.3,311.6,161,286,161,286l-3.8-34.2c0,0,3.4,0.9,7.7,2.1
				c4,1.1,8.3,5.2,11.1,9.7c5.9,9.4,21.2,33.7,21.2,33.7S205.3,274.7,206.5,271.1z"/>
			<path class="st6" d="M159.7,252.1c6.3,0.8,10,2.8,13.7,7.2c3.7,4.4,18.1,28.3,18.1,28.3s-4.9,10.5-18.1,16.1L157,282.2
				L159.7,252.1z"/>
			<path class="st17" d="M159.7,252.1c6.3,0.8,10,2.8,13.7,7.2c3.7,4.4,18.1,28.3,18.1,28.3s-4.9,10.5-18.1,16.1L157,282.2
				L159.7,252.1z"/>
			<path class="st23" d="M197,297.3c-2.2,4.9-3.7,10-4.3,15.3c0,0-1.8-10.6,2.3-18.5L197,297.3z"/>
			<path class="st23" d="M218.6,257.9c0.4,3.9-1.2,9.1-2.6,11.1c1.5-1.5,2.6-3.3,3.2-5.3C219.9,260.5,219.4,259.1,218.6,257.9z"/>
			<path class="st19" d="M169.3,352.5c-13.2,9.4-56.6,12.5-69.3,4.1V255.1l1-0.2l12.4-2.6l6.7-1.4l1.7-0.4l0,0l6-1.3l15.6,0.9l0,0
				l4.7,0.3l0,0h0.5c0,0,5.4,0.6,11.1,1.6c0.2,0.2,0.4,0.4,0.6,0.6l0,0c3.9,4.2,7.3,15,8.3,26.5c0.4,4.4,0.6,11,0.8,18.4
				c0,0,0,0.5,0,0.7C170,321,169.3,352.5,169.3,352.5z"/>
			<g id="freepik--Head--inject-44">
				<path class="st8" d="M159.1,211.8c2.8-6.4,0.1-14.8-3.3-18.8c-4.8-5.7-12.2-8.2-23.5-7.5c-8.6,0.5-16.9,4.1-18.6,12.9
					c-6.9,2.1-6.1,13.3-4.4,18.3c3.5,10.1,10.3,18.9,10.4,24L159.1,211.8z"/>
				<path class="st22" d="M159.1,235.5c-1.4,4.9-4.2,8.4-8.7,9.1c-2.4,0.2-4.7,0.2-7.1,0l0.2,6.2c6.1,5.2,3.9,12-0.2,18.2
					c-5-5.6-10.8-7.6-15.8-9.8c-3.1-1.5-5.7-4-7.3-7.1l-0.6-21c0,0-2.8,3.1-7.3,0.2c-3.8-2.8-5.1-7.9-3.1-12.1
					c2.3-4.8,6.8-2.8,8.2-1.4s3,4.2,4.2,3.8c1.4-0.4,2.4-1.5,2.8-2.9c1.1-3,1.6-6.1,1.5-9.2c1.3-0.7,2.5-1.6,3.5-2.7
					c1.8-1.9,2.9-4.4,3.1-7.1c9.7-3,20.9-1.6,25,1.5c2.3,4.1,2.4,13.6,2.8,19.1C160.5,226.5,160.2,231.5,159.1,235.5z"/>
				<path class="st23" d="M143.3,244.7c-5-0.3-15-2.6-17.7-5.4s-3.8-8.5-3.8-8.5s0.4,7.2,2.5,10.4s7.3,4.6,10.5,5.4
					c2.9,0.6,5.8,1,8.7,1.3L143.3,244.7z"/>
				<path class="st6" d="M143.3,269.1c-2.6-1.6-8.4-8.1-11.2-5.1s-4.4,3.9-6.3,3.3s-6.1-4.7-8.8-7.7c-1.8-2.1-3-4.6-3.6-7.4
					c1.4-1.7,2.7-3.5,3.8-5.4c1.3-2.3,1-2.9,2.7-3.1l0.2,4.3c0,0,1,2.4,5.7,5.6C130.5,256.8,139.9,261.7,143.3,269.1z"/>
				<path class="st17" d="M143.3,269.1c-2.6-1.6-8.4-8.1-11.2-5.1s-4.4,3.9-6.3,3.3s-6.1-4.7-8.8-7.7c-1.8-2.1-3-4.6-3.6-7.4
					c1.4-1.7,2.7-3.5,3.8-5.4c1.3-2.3,1-2.9,2.7-3.1l0.2,4.3c0,0,1,2.4,5.7,5.6C130.5,256.8,139.9,261.7,143.3,269.1z"/>
				<path class="st6" d="M143.3,269.1c1.6-1.4,4.1-8,4.8-7.8c1,0.3,2.8,4.9,3.6,3.8c1.4-1.7,0.9-9.4-1.3-12.1s-5.3-5.8-7-6.1
					l0.1,4.1c1,2.1,1.6,4.3,1.7,6.6C145.1,259.9,143.6,266.9,143.3,269.1z"/>
				<path class="st17" d="M143.3,269.1c1.6-1.4,4.1-8,4.8-7.8c1,0.3,2.8,4.9,3.6,3.8c1.4-1.7,0.9-9.4-1.3-12.1s-5.3-5.8-7-6.1
					l0.1,4.1c1,2.1,1.6,4.3,1.7,6.6C145.1,259.9,143.6,266.9,143.3,269.1z"/>
				<path class="st18" d="M140.1,217.3c0,1.1-0.8,2-1.9,2.1h-0.1c-1.2,0.1-2.1-0.8-2.2-2s0.8-2.1,2-2.2
					C139.1,215.1,140,216,140.1,217.3L140.1,217.3z"/>
				<path class="st19" d="M137.3,210.9l-4.1,2.8c-0.7-1.2-0.4-2.7,0.7-3.5C135,209.4,136.5,209.7,137.3,210.9
					C137.3,210.8,137.3,210.9,137.3,210.9z"/>
				<path class="st19" d="M156.9,212.8l-4.5-2.1c0.5-1.2,1.9-1.8,3.1-1.3c0,0,0.1,0,0.1,0.1C156.9,210,157.4,211.5,156.9,212.8z"/>
				<path class="st18" d="M155.4,217.2c0.1,1.1-0.8,2-1.9,2.1h-0.1c-1.2,0.1-2.1-0.8-2.2-2s0.8-2.1,2-2.2S155.3,215.9,155.4,217.2
					C155.4,217.1,155.4,217.2,155.4,217.2z"/>
				<polygon class="st23" points="144.8,213 146.2,227.5 154,225.1 				"/>
				<path class="st24" d="M140.1,230.9l8.3,1.9c-0.4,2.3-2.6,3.8-4.9,3.4h-0.1C141.1,235.5,139.6,233.2,140.1,230.9z"/>
				<path class="st25" d="M143.5,236.1c0.2,0,0.3,0,0.5,0.1c-0.1-2.1-1.8-3.8-3.9-3.8C140.3,234.2,141.7,235.7,143.5,236.1z"/>
			</g>
			<path class="st6" d="M103,288.1l-3,7.4v-40.4C100,255.1,108.6,271.7,103,288.1z"/>
			<path class="st17" d="M103,288.1l-3,7.4v-40.4C100,255.1,108.6,271.7,103,288.1z"/>
		</g>
		<path class="st18" d="M160.3,224.7c1.9,0.6,3.7,1.5,5.4,2.5c2.2,1.3,3,4.2,1.7,6.5l-2.1-0.4c0,0,1.1-2.4-0.2-3.7s-4.9-2.4-4.9-2.4
			L160.3,224.7z"/>
		<path class="st6" d="M166.5,232.4c-1.7-0.8-2.5,0.2-3.6,3.1s-0.4,3.6,1.1,4.2s2.5-0.4,3.4-2.7
			C168.3,234.2,168.3,233.2,166.5,232.4z"/>
		<path class="st26" d="M166.5,232.4c-1.7-0.8-2.5,0.2-3.6,3.1s-0.4,3.6,1.1,4.2s2.5-0.4,3.4-2.7
			C168.3,234.2,168.3,233.2,166.5,232.4z"/>
		<path class="st18" d="M118.1,189c-5,4.6-9.8,11.2-6.2,26.3c-2.3,2.2-3.1,5.5-2.1,8.6c1.4,4.7,5.9,7.8,10,6.9s6.4-5.4,5.1-10.1
			c-1-3.5-4.8-6.9-7.9-6.7c0,0-3-6.5-0.2-15.7c3.8-12.5,18.4-13.6,24.8-12.5C139.5,182.8,124.7,182.9,118.1,189z"/>
		<path class="st6" d="M125.8,220.5c-1.5-5.2-6.5-8.6-11.1-7.6c-0.7,0.1-1.4,0.4-2,0.8c-0.5,0.3-2.1,1.4-2.4,1.6
			c-2.9,2-4.3,6-3.1,10.1c1.5,5.2,6.5,8.6,11.1,7.6c0.8-0.2,1.7-0.5,2.4-1c0.4-0.2,1.8-1.2,2.2-1.5
			C125.7,228.4,127,224.5,125.8,220.5z"/>
		<path class="st16" d="M125.8,220.5c-1.5-5.2-6.5-8.6-11.1-7.6c-0.7,0.1-1.4,0.4-2,0.8c-0.5,0.3-2.1,1.4-2.4,1.6
			c-2.9,2-4.3,6-3.1,10.1c1.5,5.2,6.5,8.6,11.1,7.6c0.8-0.2,1.7-0.5,2.4-1c0.4-0.2,1.8-1.2,2.2-1.5
			C125.7,228.4,127,224.5,125.8,220.5z"/>
		<path class="st6" d="M123.9,221.7c-1.5-5.2-6.5-8.6-11.1-7.6s-7.1,6-5.6,11.1s6.5,8.6,11.1,7.6S125.4,226.9,123.9,221.7z"/>
		<path class="st26" d="M123.9,221.7c-1.5-5.2-6.5-8.6-11.1-7.6s-7.1,6-5.6,11.1s6.5,8.6,11.1,7.6S125.4,226.9,123.9,221.7z"/>
		<path class="st19" d="M119.5,222.7c-0.7-2.4-3.1-4.1-5.2-3.6s-3.4,2.8-2.7,5.3s3.1,4,5.2,3.6S120.2,225.1,119.5,222.7z"/>
	</g>
	<g id="freepik--speech-bubble--inject-44" class="st13">
		<path class="st27" d="M177.3,165.1c-0.2,0.1-0.4,0.3-0.6,0.5c-0.2,0.2-0.3,0.4-0.4,0.6c-0.1,0.2-0.2,0.5-0.2,0.7s-0.1,0.5-0.1,0.7
			s0,0.3,0,0.6s0,0.5,0,0.7s0,0.5,0,0.8s0,0.4,0,0.6c0,0.2,0,0.4,0.1,0.6c0,0.2,0.1,0.3,0.2,0.4c0.1,0.1,0.2,0.2,0.4,0.2
			s0.4-0.1,0.6-0.2c0.2-0.1,0.3-0.2,0.5-0.4s0.3-0.3,0.4-0.5c0.1-0.2,0.2-0.4,0.3-0.7s0.1-0.6,0.1-0.9l-0.9,0.5
			c-0.1,0.1-0.1,0.1-0.2,0c-0.1-0.1-0.1-0.2-0.1-0.3v-1.6c0-0.1,0-0.2,0.1-0.4c0-0.1,0.1-0.2,0.2-0.2l2.4-1.4c0.1,0,0.1,0,0.2,0
			c0.1,0.1,0.1,0.2,0.1,0.3v2c0,0.7-0.1,1.3-0.2,1.9c-0.2,0.6-0.4,1.2-0.7,1.7s-0.6,1-1,1.4s-0.8,0.7-1.2,1
			c-0.4,0.2-0.8,0.4-1.3,0.4c-0.4,0-0.7-0.1-1-0.4c-0.3-0.3-0.5-0.6-0.6-1c-0.2-0.5-0.2-1-0.3-1.5c0-0.4,0-0.9,0-1.4s0-1,0-1.4
			c0-0.6,0.1-1.2,0.2-1.8c0.1-0.6,0.4-1.2,0.6-1.7c0.3-0.5,0.6-1,1-1.5c0.4-0.4,0.8-0.8,1.3-1.1c0.4-0.2,0.8-0.4,1.3-0.4
			c0.4,0,0.7,0.1,1,0.3s0.5,0.4,0.6,0.7c0.2,0.3,0.2,0.7,0.2,1c0,0.1,0,0.2-0.1,0.3c0,0.1-0.1,0.1-0.2,0.2l-1.4,0.8
			c-0.1,0.1-0.2,0.1-0.2,0l-0.2-0.2c-0.1-0.1-0.2-0.2-0.4-0.3C177.9,164.8,177.6,164.9,177.3,165.1z"/>
		<path class="st27" d="M183,167.1c0,0.2,0,0.4,0.1,0.5c0,0.1,0.1,0.2,0.2,0.3c0.1,0,0.2,0,0.3,0s0.2-0.1,0.3-0.1
			c0.2-0.1,0.3-0.2,0.5-0.4c0.1-0.1,0.2-0.3,0.3-0.4c0-0.1,0.1-0.2,0.2-0.3c0-0.1,0.1-0.1,0.2-0.1l1.3-0.8c0.1-0.1,0.2,0,0.2,0.2
			s-0.1,0.4-0.1,0.7c-0.3,0.8-0.7,1.6-1.3,2.2c-0.3,0.4-0.7,0.7-1.2,1c-0.3,0.2-0.8,0.4-1.2,0.4c-0.3,0-0.6-0.1-0.9-0.3
			c-0.3-0.3-0.4-0.6-0.5-1c-0.1-0.5-0.2-1.1-0.2-1.7c0-0.6,0.1-1.2,0.2-1.8c0.1-0.6,0.3-1.1,0.5-1.6s0.5-1,0.9-1.4
			c0.3-0.4,0.7-0.7,1.2-1c0.4-0.3,0.8-0.4,1.3-0.4c0.3,0.1,0.6,0.2,0.9,0.5c0.2,0.3,0.4,0.7,0.5,1.1c0.1,0.5,0.1,0.9,0.1,1.4v0.4
			c0,0.1,0,0.2-0.1,0.3c0,0.1-0.1,0.2-0.2,0.2L183,167.1z M183.9,163.6c-0.3,0.2-0.5,0.4-0.6,0.8c-0.1,0.3-0.2,0.7-0.3,1l1.8-1.1
			c0-0.3-0.1-0.5-0.3-0.7C184.4,163.5,184.2,163.5,183.9,163.6L183.9,163.6z"/>
		<path class="st27" d="M190,163.1c0,0.2,0,0.3,0.1,0.5c0.1,0.1,0.2,0.1,0.3,0l0.8-0.5c0.1,0,0.1,0,0.2,0c0.1,0.1,0.1,0.2,0.1,0.3
			v1.6c0,0.1,0,0.2-0.1,0.4c0,0.1-0.1,0.2-0.2,0.2l-1,0.6c-0.3,0.2-0.6,0.3-0.9,0.3c-0.2,0-0.5-0.1-0.7-0.2
			c-0.2-0.2-0.4-0.4-0.4-0.7c-0.1-0.4-0.2-0.8-0.1-1.2v-2.6l-0.8,0.4c-0.1,0-0.1,0-0.2,0c-0.1-0.1-0.1-0.2-0.1-0.3v-1.6
			c0-0.1,0-0.2,0.1-0.4c0-0.1,0.1-0.2,0.2-0.2l0.8-0.4v-2.5c0-0.1,0-0.2,0.1-0.3c0-0.1,0.1-0.2,0.2-0.2l1.3-0.7c0.1,0,0.1,0,0.2,0
			c0.1,0.1,0.1,0.2,0.1,0.3v2.5l1.1-0.7c0.1,0,0.1,0,0.2,0c0.1,0.1,0.1,0.2,0.1,0.3v1.6c0,0.1,0,0.2-0.1,0.3c0,0.1-0.1,0.2-0.2,0.2
			l-1.1,0.7L190,163.1z"/>
		<path class="st27" d="M196.3,153.2c0,0.1,0,0.2-0.1,0.4c0,0.1-0.1,0.2-0.2,0.2l-1.3,0.7c-0.1,0-0.1,0-0.2,0
			c-0.1-0.1-0.1-0.2-0.1-0.3v-1.6c0-0.1,0-0.2,0.1-0.3c0-0.1,0.1-0.2,0.2-0.2l1.3-0.7c0.1-0.1,0.1-0.1,0.2,0
			c0.1,0.1,0.1,0.2,0.1,0.3V153.2z M196.3,162.2c0,0.1,0,0.2-0.1,0.4c0,0.1-0.1,0.2-0.2,0.2l-1.3,0.7c-0.1,0-0.1,0-0.2,0
			c-0.1-0.1-0.1-0.2-0.1-0.3V156c0-0.1,0-0.2,0.1-0.4c0-0.1,0.1-0.2,0.2-0.2l1.3-0.7c0.1,0,0.1,0,0.2,0c0.1,0.1,0.1,0.2,0.1,0.3
			V162.2z"/>
		<path class="st27" d="M202.9,158.4c0,0.1,0,0.2-0.1,0.3c0,0.1-0.1,0.2-0.2,0.2l-1.3,0.7c-0.1,0-0.1,0-0.2,0
			c-0.1-0.1-0.1-0.2-0.1-0.3v-3.9c0-0.3,0-0.7-0.2-1c-0.1-0.2-0.4-0.2-0.7,0s-0.5,0.5-0.7,0.8c-0.1,0.4-0.2,0.8-0.2,1.2v3.9
			c0,0.1,0,0.2-0.1,0.4c0,0.1-0.1,0.2-0.2,0.2l-1.3,0.7c-0.1,0.1-0.1,0.1-0.2,0c-0.1-0.1-0.1-0.2-0.1-0.3V154c0-0.1,0-0.2,0.1-0.4
			c0-0.1,0.1-0.2,0.2-0.2l1.2-0.7c0.1,0,0.1,0,0.2,0c0.1,0.1,0.1,0.2,0.1,0.3v0.4c0.1-0.1,0.1-0.3,0.2-0.4c0.1-0.2,0.2-0.3,0.3-0.5
			s0.3-0.3,0.4-0.4c0.2-0.1,0.3-0.3,0.5-0.4c0.3-0.2,0.6-0.3,0.9-0.3c0.3,0,0.5,0.1,0.7,0.2c0.2,0.2,0.4,0.5,0.4,0.9
			c0.1,0.5,0.2,1,0.2,1.5L202.9,158.4z"/>
		<path class="st27" d="M175,187.6c0,0.2,0,0.3,0.1,0.5c0.1,0.1,0.2,0.1,0.3,0l0.8-0.5c0.1,0,0.1,0,0.2,0c0.1,0.1,0.1,0.2,0.1,0.3
			v1.6c0,0.1,0,0.2-0.1,0.3c0,0.1-0.1,0.2-0.2,0.2l-1,0.6c-0.3,0.2-0.6,0.3-0.9,0.3c-0.2,0-0.5-0.1-0.7-0.2
			c-0.2-0.2-0.4-0.4-0.4-0.7c-0.1-0.4-0.2-0.8-0.1-1.2v-2.6l-0.8,0.4c-0.1,0-0.1,0-0.2,0c-0.1-0.1-0.1-0.2-0.1-0.3v-1.6
			c0-0.1,0-0.2,0.1-0.3c0-0.1,0.1-0.2,0.2-0.2l0.8-0.4v-2.5c0-0.1,0-0.2,0.1-0.4c0-0.1,0.1-0.2,0.2-0.2l1.3-0.7c0.1,0,0.1,0,0.2,0
			c0.1,0.1,0.1,0.2,0.1,0.2v2.6l1.1-0.7c0.1,0,0.1,0,0.2,0c0.1,0.1,0.1,0.2,0.1,0.3v1.6c0,0.1,0,0.2-0.1,0.4c0,0.1-0.1,0.2-0.2,0.2
			L175,185V187.6z"/>
		<path class="st27" d="M182.6,181.6c0,0.1,0,0.4,0,0.6s0,0.4,0,0.6c0,0.5-0.1,1-0.2,1.5c-0.1,0.5-0.3,1-0.6,1.5
			c-0.2,0.5-0.5,0.9-0.9,1.3c-0.3,0.4-0.7,0.7-1.1,0.9c-0.3,0.2-0.7,0.3-1.1,0.4c-0.3,0-0.6-0.1-0.9-0.3c-0.3-0.2-0.5-0.5-0.6-0.8
			c-0.1-0.4-0.2-0.8-0.2-1.3c0-0.1,0-0.3,0-0.6s0-0.4,0-0.6c0-0.5,0.1-1,0.2-1.5c0.1-0.5,0.3-1,0.6-1.5c0.2-0.5,0.5-0.9,0.9-1.3
			c0.3-0.4,0.7-0.7,1.1-0.9c0.3-0.2,0.7-0.3,1.1-0.4c0.3,0,0.6,0.1,0.9,0.3c0.3,0.2,0.4,0.5,0.6,0.8
			C182.6,180.8,182.6,181.2,182.6,181.6z M179,184.9c0,0.3,0.1,0.6,0.3,0.8c0.2,0.1,0.4,0.1,0.7,0c0.3-0.2,0.5-0.4,0.6-0.7
			c0.2-0.3,0.3-0.7,0.3-1.1c0-0.2,0-0.4,0-0.5s0-0.4,0-0.5c0-0.3-0.1-0.6-0.3-0.8c-0.2-0.1-0.5-0.1-0.6,0c-0.3,0.2-0.5,0.4-0.7,0.7
			s-0.3,0.7-0.3,1.1c0,0.2,0,0.4,0,0.6S179,184.8,179,184.9z"/>
		<path class="st27" d="M183.6,178.1c0-0.1,0-0.2,0.1-0.3c0-0.1,0.1-0.2,0.2-0.2l1.3-0.7c0.1,0,0.1,0,0.2,0c0.1,0.1,0.1,0.2,0.1,0.3
			v4c0,0.3,0,0.7,0.2,1c0.1,0.2,0.3,0.2,0.6,0s0.5-0.5,0.6-0.8c0.1-0.4,0.2-0.8,0.2-1.2v-4c0-0.1,0-0.2,0.1-0.3
			c0-0.1,0.1-0.2,0.2-0.2l1.3-0.7c0.1,0,0.1,0,0.2,0c0.1,0.1,0.1,0.2,0.1,0.3v7.3c0,0.1,0,0.2-0.1,0.3c0,0.1-0.1,0.2-0.2,0.2
			l-1.2,0.7c-0.1,0-0.1,0-0.2,0c-0.1-0.1-0.1-0.2-0.1-0.3v-0.4c-0.1,0.1-0.1,0.3-0.2,0.4c-0.1,0.2-0.2,0.3-0.3,0.5s-0.3,0.3-0.4,0.4
			c-0.2,0.2-0.3,0.3-0.5,0.4c-0.6,0.4-1.2,0.4-1.6,0c-0.5-0.7-0.7-1.5-0.6-2.4L183.6,178.1z"/>
		<path class="st27" d="M191.6,176.5c0,0.2,0,0.4,0,0.6c0,0.2,0,0.4,0,0.5c0,0.3,0.1,0.5,0.3,0.8c0.2,0.1,0.4,0.1,0.6,0
			c0.2-0.1,0.4-0.3,0.5-0.4c0.1-0.2,0.2-0.4,0.3-0.6c0-0.1,0.1-0.2,0.1-0.3s0.1-0.2,0.2-0.2l1.4-0.8c0.1-0.1,0.1-0.1,0.2,0
			c0.1,0.1,0.1,0.2,0.1,0.3c0,0.3-0.1,0.5-0.1,0.8c-0.1,0.4-0.2,0.8-0.4,1.2c-0.2,0.5-0.5,0.9-0.8,1.3c-0.4,0.5-0.8,0.8-1.3,1.1
			c-0.3,0.2-0.7,0.3-1.1,0.4c-0.3,0-0.6-0.1-0.9-0.2c-0.3-0.2-0.5-0.5-0.6-0.8c-0.2-0.4-0.2-0.9-0.2-1.4c0-0.1,0-0.4,0-0.6
			s0-0.5,0-0.6c0-0.6,0.1-1.1,0.2-1.6c0.1-0.5,0.3-1,0.6-1.5c0.2-0.4,0.5-0.9,0.9-1.2c0.3-0.3,0.7-0.6,1.1-0.9
			c0.4-0.3,0.8-0.4,1.3-0.4c0.3,0,0.6,0.2,0.8,0.4s0.3,0.4,0.4,0.7c0.1,0.2,0.1,0.4,0.1,0.7c0,0.1,0,0.2-0.1,0.3
			c0,0.1-0.1,0.2-0.2,0.2l-1.3,0.8c-0.1,0-0.1,0-0.2,0c-0.1,0-0.1-0.1-0.1-0.1c-0.1-0.1-0.2-0.2-0.3-0.3c-0.2,0-0.4,0-0.5,0.1
			c-0.3,0.2-0.5,0.4-0.6,0.7C191.8,175.7,191.7,176.1,191.6,176.5z"/>
		<path class="st27" d="M201.5,175c0,0.1,0,0.2-0.1,0.4c0,0.1-0.1,0.2-0.2,0.2l-1.3,0.7c-0.1,0-0.1,0-0.2,0
			c-0.1-0.1-0.1-0.2-0.1-0.3v-3.9c0-0.3,0-0.7-0.2-1c-0.1-0.2-0.4-0.2-0.7,0s-0.5,0.4-0.7,0.8c-0.1,0.4-0.2,0.8-0.2,1.2v3.9
			c0,0.1,0,0.2-0.1,0.3c0,0.1-0.1,0.2-0.2,0.2l-1.3,0.7c-0.1,0-0.1,0-0.2,0c-0.1-0.1-0.1-0.2-0.1-0.3v-10.2c0-0.1,0-0.2,0.1-0.4
			c0-0.1,0.1-0.2,0.2-0.2l1.3-0.7c0.1,0,0.1,0,0.2,0c0.1,0.1,0.1,0.2,0.1,0.3v3.3c0.1-0.3,0.3-0.7,0.5-0.9c0.2-0.3,0.5-0.6,0.8-0.8
			s0.6-0.3,0.9-0.3c0.3,0,0.5,0.1,0.7,0.3s0.4,0.5,0.4,0.9c0.1,0.5,0.2,1,0.2,1.5L201.5,175z"/>
		<path class="st27" d="M204.5,169.9c0,0.1,0,0.2-0.1,0.3c0,0.1-0.1,0.2-0.2,0.2l-1.3,0.7c-0.1,0-0.1,0-0.2,0
			c-0.1-0.1-0.1-0.2-0.1-0.3v-6.7c0-0.1,0-0.2,0.1-0.3c0-0.1,0.1-0.2,0.2-0.2l1.3-0.7c0.1,0,0.1,0,0.2,0c0.1,0.1,0.1,0.2,0.1,0.3
			V169.9z M204.5,173.3c0,0.1,0,0.2-0.1,0.4c0,0.1-0.1,0.2-0.2,0.2l-1.3,0.7c-0.1,0-0.1,0-0.2,0c-0.1-0.1-0.1-0.2-0.1-0.3v-1.6
			c0-0.1,0-0.2,0.1-0.3c0-0.1,0.1-0.2,0.2-0.2l1.3-0.7c0.1,0,0.1,0,0.2,0c0.1,0.1,0.1,0.2,0.1,0.3V173.3z"/>
		<path class="st28" d="M170.2,209.4c-0.7,0-1.3-0.6-1.3-1.3c0-0.3,0.1-0.7,0.4-0.9c1.9-1.9,3-4.6,3.5-8.1c-6.3-1.3-10-6.7-10-14.6
			c0-14,11.4-31.9,25.4-40l0,0c7.4-4.3,14.5-5.1,19.4-2.3c4.1,2.4,6.3,7.1,6.3,13.2c0,14-11.4,31.9-25.4,40c-1.8,1.1-3.8,2-5.8,2.7
			c-3.3,7.4-8.5,10.3-12.2,11.3C170.4,209.4,170.3,209.4,170.2,209.4z M188.6,145.2c-13.7,7.9-24.9,25.5-24.9,39.2
			c0,7.7,3.5,12.8,9.7,13.8l0.4,0.1v0.4c-0.5,4-1.8,6.9-3.8,9c-0.2,0.2-0.2,0.5,0,0.7c0.1,0.1,0.3,0.1,0.4,0.1
			c3.6-1,8.6-3.7,11.8-11l0.1-0.2l0.2-0.1c2-0.7,4-1.6,5.8-2.7c13.7-7.9,24.9-25.5,24.9-39.2c0-5.9-2.1-10.3-5.9-12.5
			C202.6,140.2,195.8,141,188.6,145.2L188.6,145.2z"/>
	</g>
</g>
<g id="freepik--character-1--inject-44">
	<g id="freepik--character--inject-44">
		<path class="st18" d="M323,396.5c-0.4,1.3-0.4,2.8-0.1,4.1c0.4,0.8,2.9,3.5,7.9,4.5s11.9,0,14.9-0.2s12.3,1,15.3,1.4
			c4.7,0.6,8.3-0.4,10-2.1c0.6-0.7,0.8-1.6,0.7-2.5c0-1.1-0.2-2.2-0.5-3.3L323,396.5z"/>
		<path class="st19" d="M370.4,393.6c0.1,0.4,0.2,0.8,0.3,1.2c0.5,2,0.6,4,0.4,6c-0.6,1.5-2.3,2.3-3.6,2.7
			c-3.5,1.1-6.2,0.9-10.1,0.2c-3.9-0.6-7.9-0.8-11.8-0.7c-3.1,0.2-7.3,0.8-10.3,0.5c-2.6-0.1-5.2-0.6-7.6-1.5c-2-0.9-4.1-2-4.6-4.1
			c-0.6-4.4,1.3-6.4,3.4-7.6s5.1-1.1,8.3-1.4c2.9-0.2,5-0.2,7.5-0.4c2.2-0.1,4.4-0.4,6.6-0.9c1.9-0.6,3.9-3.1,4.7-3.2
			c0,0,12.8-0.1,14.1,0c1.4,0.1,1.9,4.5,2,5.5c0.1,0.8,0.2,1.5,0.4,2.3C370.1,392.6,370.3,393.1,370.4,393.6z"/>
		<path class="st3" d="M330.8,402.9c-0.4-3.2-0.9-10.1,4.9-14.1h0.8c-2.7-0.8-5.5-0.8-8.1,0c-4.7,1.3-6.8,5-5.6,9.1
			C322.8,397.9,323.8,401.7,330.8,402.9z"/>
		<path class="st3" d="M347.9,387.8c-1.9,1.7-2.6,5.5-2.6,5.5c-0.2,1.4-2.8,1.6-2.6,0.3c0.4-1.9,1.2-3.7,2.2-5.3
			C345.9,387.8,346.9,387.6,347.9,387.8z"/>
		<path class="st3" d="M342.6,388.5c-1.4,1.4-2.4,3.2-2.7,5.2c-0.3,1.4-2.4,1.4-2.3,0c0,0,0.3-3.4,2.3-5
			C340.7,388.2,341.7,388.1,342.6,388.5z"/>
		<path class="st18" d="M376.3,355.6c-0.2,2.3-0.5,4.3,0.4,6.8c1.3,3.6,4.1,5.2,5.8,6.6c1.7,1.7,3.3,3.6,4.8,5.5
			c1.6,2,2,3.1,4.5,5.3c2.4,1.9,5.7,2.4,8.6,1.2c2.1-0.9,2.8-1.6,2.7-4.8s-10.4-4.3-10.4-4.3L376.3,355.6z"/>
		<path class="st19" d="M401.6,366.5c0.9,0.3,1.1,1.9,1.2,5c0.1,2.4,1.1,5.9-2.3,7.4c-2.8,1.2-7.2,0.4-9.1-1.8
			c-2.4-2.8-3.9-5.3-7.3-8.7c-2.9-3-5.9-4-7.2-9.9c-0.8-3.8-0.2-5.4,2.5-6.5c3.7-1.5,9.5,3.4,12.4,4.2
			C394.4,356.9,400.8,366.2,401.6,366.5z"/>
		<path class="st3" d="M391.9,356.2c-0.2,0-0.3-0.1-0.5-0.2c-3.4,0.1-6.4,2-8,5c-0.5,1,1,1.9,1.9,1c2.1-3.9,6.3-4.8,8-5
			C392.9,356.7,392.5,356.4,391.9,356.2z"/>
		<path class="st3" d="M394.3,358c-3.2,0.3-6,2.2-7.5,5c-0.5,1,1,1.9,1.9,1c1.4-2.5,3.9-4.2,6.7-4.8
			C395.1,358.8,394.7,358.4,394.3,358z"/>
		<path class="st3" d="M378.7,362.9c0,0,0.3-7.1,10.3-8l0.6,0.3c-1.1-1.8-2.9-3.1-4.9-3.6c-3.3-0.9-6,0-7.7,2.1
			S376.9,361.5,378.7,362.9z"/>
		<path class="st6" d="M405.1,316.6c-1-11-1.1-18.3-1.1-18.3s0-16,0.4-31.1c0.2-8.4,0.1-14.1,0.2-20.7c0.2-7.4-0.4-14.7-1.8-22
			c0,0-51.5-10.2-52.1,8.6c-0.8,22.6-0.7,61.3-1.5,76.1c-0.5,8.3,0.4,15.2,0.9,31.3c0.4,13.4,0.3,46.3,0.3,46.3
			c5.7,7.8,19,1.9,19,1.9s4.1-46.2,4.7-55.7c0.6-10.3-0.4-15.5-0.4-15.5l5.3-47.8c0,0,0.4,15.3,0.9,23.6s1.1,14.8,3.1,30.2
			c2,16.1,5.3,45.4,5.3,45.4c6.9,4.1,14.9,0.8,14.9,0.8S406.1,328.3,405.1,316.6z"/>
		<path class="st29" d="M405.1,316.6c-1-11-1.1-18.3-1.1-18.3s0-16,0.4-31.1c0.2-8.4,0.1-14.1,0.2-20.7c0.2-7.4-0.4-14.7-1.8-22
			c0,0-51.5-10.2-52.1,8.6c-0.8,22.6-0.7,61.3-1.5,76.1c-0.5,8.3,0.4,15.2,0.9,31.3c0.4,13.4,0.3,46.3,0.3,46.3
			c5.7,7.8,19,1.9,19,1.9s4.1-46.2,4.7-55.7c0.6-10.3-0.4-15.5-0.4-15.5l5.3-47.8c0,0,0.4,15.3,0.9,23.6s1.1,14.8,3.1,30.2
			c2,16.1,5.3,45.4,5.3,45.4c6.9,4.1,14.9,0.8,14.9,0.8S406.1,328.3,405.1,316.6z"/>
		<path class="st30" d="M398,250.6c0,0-2.1,7.7-14.9,12.9c0,0-3.5,27.8-3.4,27.3l-0.7-21.1l1.2-8.8
			C380.2,260.8,392.2,258.2,398,250.6z"/>
		<path class="st6" d="M397.1,156.8c5.1,0,9.8,1.5,13.9,14.3s7.6,29.5,8,33.6c0.4,5.4,0.2,7.7-4,11.6s-15,13.1-15,13.1l-3.6-15.3
			l8.3-9.4L397.1,156.8z"/>
		<path class="st10" d="M397.1,156.8c5.1,0,9.8,1.5,13.9,14.3s7.6,29.5,8,33.6c0.4,5.4,0.2,7.7-4,11.6s-15,13.1-15,13.1l-3.6-15.3
			l8.3-9.4L397.1,156.8z"/>
		<polygon class="st24" points="371.1,152.2 373.2,170 389.7,166.3 387.6,142.5 		"/>
		<path class="st31" d="M358.7,130.4c0,0-4.4,6.7-3.9,7.4s3.8,1.3,3.8,1.3L358.7,130.4z"/>
		<path class="st18" d="M360.7,134.4c-2.8,0-5-2.2-5-5s2.2-5,5-5s5,2.2,5,5C365.7,132.1,363.4,134.4,360.7,134.4z M360.7,125.5
			c-2.1,0-3.9,1.7-3.9,3.9c0,2.1,1.7,3.9,3.9,3.9c2.1,0,3.9-1.7,3.9-3.9C364.5,127.2,362.8,125.5,360.7,125.5z"/>
		<path class="st24" d="M371,112.8c-8.5,1.8-11.5,5.2-12.4,18.7c-0.8,14.1,1.2,18.9,3,20.8c1.3,1.3,8.2,1.5,11.7,0.6
			c4.4-1.2,14.3-4.7,19-11.8c5.5-8.4,6.9-19.7,1-24.3C385.1,110.1,374.4,112,371,112.8z"/>
		<path class="st31" d="M371.3,153.2l-0.4-2.6c-2.7,1.4-5.7,2.1-8.7,2C363.8,153.4,368,153.6,371.3,153.2z"/>
		<polygon class="st18" points="356.5,128.4 371.6,130.4 371,131.5 356.5,129.6 		"/>
		<path class="st18" d="M357.8,118.2c0.6,0.1,1.3,0.1,1.9-0.1c-0.5,1.3-0.1,2.7,1,3.5s2.5,1,3.8,0.5c-0.5,0.8-0.6,1.7-0.4,2.6
			c0.5,2,2.4,3.3,4.4,3.2c0.1,2,0.1,3.9,2.2,4.8c0,0,1.3-5.2,5.7-4.6s5,6.3,2.2,9.7s-5.4,2.1-5.4,2.1c0.1,0.9,0.3,1.7,0.7,2.5
			c0.8,1.7,2.1,3.1,3.7,4.1c3.2,1.9,6.9,2.9,10.6,2.9c1.4-4,3.6-7,6-10.5c1.9-2.7,4.3-5.9,5.2-9.1c1.1-3.5,1.2-7.2,0.1-10.6
			c-1-3.2-2.3-5.6-5.7-6.4c-0.8-4.2-5-6.5-8.8-8.4c-3.9-1.9-8.5-2-12.4-0.1c-1.4-1.5-2.5-3.3-4.5-4.2c-1.6-0.8-3.6-0.5-4.8,0.9
			c-0.7,1.2-1,2.7-0.8,4.1c-1.6-0.3-3.3-0.1-4.9,0.4c-1.6,0.6-2.7,1.9-3.1,3.5c-0.3,1.7,0.6,3.3,2.2,3.9c-1.1,0.8-1.5,2.2-1.1,3.4
			C356,117.4,356.8,118.1,357.8,118.2z"/>
		<path class="st18" d="M370.6,135.7l0.1-5.9c-1.6-0.3-3.2,0.7-3.6,2.3c-0.3,1.6,0.7,3.2,2.3,3.6
			C369.9,135.8,370.3,135.8,370.6,135.7z"/>
		<path class="st6" d="M405.4,164.9c-1.8-4.6-5.7-8.5-11.9-8.7c-1.4,0-4.6,0-4.6,0c-0.7,2.9-11.8,3.9-17,2
			c-2.3,0.6-13.4,3.5-15.3,4.1c-5.5,1.8-5.5,8.8-5.5,24.9c0,15.1,0,32.9-0.8,51.8c9.6,5.1,23.5,6.4,34.1,5.3
			c16.6-1.7,20.6-6.6,20.6-6.6c-0.7-8.7-0.9-17.4-0.6-26.1c0.2-7.2,1.7-16.1,2.3-23.9S407,169.2,405.4,164.9z"/>
		<path class="st7" d="M405.4,164.9c-1.8-4.6-5.7-8.5-11.9-8.7c-1.4,0-4.6,0-4.6,0c-0.7,2.9-11.8,3.9-17,2
			c-2.3,0.6-13.4,3.5-15.3,4.1c-5.5,1.8-5.5,8.8-5.5,24.9c0,15.1,0,32.9-0.8,51.8c9.6,5.1,23.5,6.4,34.1,5.3
			c16.6-1.7,20.6-6.6,20.6-6.6c-0.7-8.7-0.9-17.4-0.6-26.1c0.2-7.2,1.7-16.1,2.3-23.9S407,169.2,405.4,164.9z"/>
		<path class="st24" d="M298.9,141.5c-0.9-2.1,0.1-5.6,0.5-7.1c0.7-2.6,0.3-6.1,0.4-7.1c0.4-2.6-1.4-3.2-2.7-1.4
			c-1.2,1.6-1.2,5.1-2.1,5.3s-3.5-6.6-4.8-10.5s-1.7-6.5-3.9-6c-1.6,0.4-1.5,2.4-0.7,5.7c0.4,1.4,0.8,2.8,1,4.3
			c0,0.5-0.8,0.6-1.1,0.7c-0.7,0.2-1.9,0.6-2.2,1.3c-0.1,0.4-0.3,0.8-0.5,1.1c-0.6,0.7-1.8,0.7-2.4,1.4c-0.5,0.5-0.5,1.3-0.9,1.8
			c-0.2,0.4-0.6,0.6-0.8,1c-0.4,0.8-0.4,1.7-0.1,2.5c0.9,2.6,2.3,5,4.2,7c1.5,1.9,3.9,4.9,4.7,6.3c2.9,4.5,13.4,21.6,18.6,28.4
			c1.1,1.4,2.1,2.8,4.5,3.4c6,1.6,42.6,4.8,42.6,4.8c10.6,0.2,14.3-19.1,5.3-20.1c0,0-7.3-0.2-16.1-0.3c-9.4-0.1-25.1-0.5-25.1-0.5
			S299.6,143.2,298.9,141.5z"/>
		<path class="st6" d="M359,162.4c-5.4-0.2-41.2,0.1-41.2,0.1l-14.9-15.9c-2,4.4-6,7.5-10.8,8.3c0,0,6.5,11.8,10.2,17.3
			c3.4,5,4.2,7.6,9.5,8.6s38.9,4.9,41.8,4.8s7.7-0.6,10.7-9.1C366.9,169,364.5,162.7,359,162.4z"/>
		<path class="st10" d="M359,162.4c-5.4-0.2-41.2,0.1-41.2,0.1l-14.9-15.9c-2,4.4-6,7.5-10.8,8.3c0,0,6.5,11.8,10.2,17.3
			c3.4,5,4.2,7.6,9.5,8.6s38.9,4.9,41.8,4.8s7.7-0.6,10.7-9.1C366.9,169,364.5,162.7,359,162.4z"/>
	</g>
</g>
</svg>
